<?xml version="1.0" ?><svg id="Layer_1" style="enable-background:new 0 0 512 512;" version="1.1" viewBox="0 0 512 512" xml:space="preserve" xmlns="http://www.w3.org/2000/svg" xmlns:xlink="http://www.w3.org/1999/xlink"><g id="XMLID_19615_"><g id="XMLID_337_"><path d="M179.2,258.4c-14,0-27.3-0.8-37.2-9.4c-11.4-9.9-13.2-26.1-13.4-42.2c-0.2-16.3-0.1-32.8,0-48.8    c0.3-33,0.5-67-2.4-100.3c-1.1-12.2-2.3-26,5.4-36.5C140.8,8.8,157.7,7,174.6,7l171-0.1c6.8,0,19.5,0,26.2,8.6    c4.6,6,4.6,14,4.6,19.8l0,172.3c0,1.8,0,3.6,0.1,5.5c0.2,12,0.5,25.6-9.2,34.4l0,0c-1.8,1.6-3.9,3.1-6.3,4.3    c-7.7,3.9-16.2,4.7-25,5.2c-21.2,1.3-42.7,1.3-63.5,1.3l-92.7,0.1C179.6,258.4,179.4,258.4,179.2,258.4z M345.7,12.9    C345.6,12.9,345.6,12.9,345.7,12.9L174.6,13c-15.3,0-30.5,1.4-38,11.8c-6.4,8.7-5.3,21.3-4.3,32.4c3,33.6,2.7,67.8,2.4,100.9    c-0.1,16-0.3,32.5,0,48.7c0.2,14.7,1.7,29.4,11.3,37.8c8.4,7.3,20.8,7.9,33.9,7.9l92.7-0.1c20.7,0,42.1-0.1,63.1-1.3    c8.1-0.5,16-1.2,22.7-4.6c1.9-1,3.5-2.1,4.9-3.4c7.7-7,7.4-18.6,7.2-29.8c0-1.9-0.1-3.8-0.1-5.6l0-172.3c0-6.4-0.3-12.1-3.4-16.1    C362.6,13.4,353.7,12.9,345.7,12.9z" id="XMLID_17976_"/></g><g id="XMLID_340_"><path d="M315.4,504.8c-7.1,0-14.1-0.3-21-1c-31.1-3.6-34.7-30.3-34.7-50.1V315.7c0-3.1,0-8-0.1-13.7    c-0.1-14.8-0.2-35,0.1-43.4c0.1-1.7,1.5-2.9,3.1-2.9c1.7,0.1,3,1.4,2.9,3.1c-0.3,8.4-0.2,28.5-0.1,43.2c0,5.7,0.1,10.6,0.1,13.7    v137.9c0,28.6,8.8,41.8,29.4,44.1c13,1.5,26.8,1,40.2,0.5c6.5-0.2,13.2-0.5,19.6-0.5h92.4c1.5,0,3.1,0,4.7,0    c12.9,0.1,26.2,0.2,37-5.6c2-1.1,3.7-2.3,5.2-3.5c8.2-7,7.9-16.4,7.4-28.3c-0.1-2.7-0.2-5.6-0.2-8.5V331c0-4.9-0.1-9.8-0.1-14.7    c-0.1-12.5-0.3-25.4,0.5-38c0.4-5.9-0.8-10.3-3.8-13.3c-6.5-6.8-21.1-6.5-32.8-6.2c-2.3,0-4.4,0.1-6.5,0.1    c-12.4,0-38.3-0.4-63.3-0.9c-25-0.4-50.8-0.9-63.2-0.9c-1.7,0-3-1.3-3-3s1.3-3,3-3c12.4,0,38.3,0.4,63.3,0.9    c25,0.4,50.8,0.9,63.2,0.9c2,0,4.1,0,6.3-0.1c13.6-0.3,28.9-0.6,37.3,8.1c4.1,4.3,5.9,10.3,5.4,17.8c-0.8,12.4-0.7,25.2-0.5,37.6    c0.1,4.8,0.1,9.8,0.1,14.7V452c0,2.8,0.1,5.6,0.2,8.3c0.5,12.4,1,24.1-9.5,33.1c-1.8,1.5-3.9,3-6.3,4.2    c-12.2,6.6-26.9,6.5-39.9,6.4c-1.6,0-3.1,0-4.6,0h-92.4c-6.3,0-13,0.2-19.4,0.4C328.9,504.5,322.1,504.8,315.4,504.8z" id="XMLID_17975_"/></g><g id="XMLID_338_"><path d="M62.3,505.1c-7.1,0-14.1-0.3-21-1c-31.1-3.6-34.7-30.3-34.7-50.1V344.6c0-8.9-0.6-18.1-1.3-27    c-0.7-10.8-1.5-21.9-1.2-32.7c0.2-7.8,1.8-13.6,4.9-18.2c10.9-15.8,33.1-14.7,51-13.8c3.8,0.2,7.4,0.4,10.5,0.4    c10.1,0,30-0.3,49.3-0.5c19.3-0.2,39.2-0.5,49.4-0.5c1.7,0,3,1.3,3,3s-1.3,3-3,3c-10.1,0-30,0.3-49.3,0.5    c-19.3,0.2-39.2,0.5-49.4,0.5c-3.3,0-7-0.2-10.8-0.4C43.4,258,23,257,14,270c-2.5,3.6-3.7,8.3-3.9,15c-0.3,10.6,0.5,21.5,1.2,32.1    c0.6,9,1.3,18.4,1.3,27.4v109.4c0,28.6,8.8,41.8,29.4,44.1c13,1.5,26.8,1,40.2,0.5c6.5-0.2,13.2-0.5,19.6-0.5h92.4    c1.5,0,3.1,0,4.7,0c12.9,0.1,26.2,0.2,37-5.6c2-1.1,3.7-2.3,5.2-3.5c8.2-7,7.9-16.4,7.4-28.3c-0.1-2.7-0.2-5.6-0.2-8.5V331.3    c0-6.5-0.4-16.6-0.8-27.3c-0.7-17.7-1.5-37.9-0.7-48.8c0.1-1.7,1.5-2.9,3.2-2.8c1.7,0.1,2.9,1.5,2.8,3.2    c-0.7,10.6,0.1,30.6,0.8,48.2c0.4,10.7,0.8,20.9,0.8,27.5v120.9c0,2.8,0.1,5.6,0.2,8.3c0.5,12.4,1,24.1-9.5,33.1    c-1.8,1.5-3.9,3-6.3,4.2c-12.2,6.6-26.9,6.5-39.9,6.4c-1.6,0-3.1,0-4.6,0h-92.4c-6.3,0-13,0.2-19.4,0.4    C75.8,504.8,69.1,505.1,62.3,505.1z" id="XMLID_17974_"/></g><g id="XMLID_441_"><path d="M218.4,176.3c2.4-18.9,5.9-37.6,10.3-56.1c2-8.4,4.1-16.8,6.9-25c1.5-4.4,3.1-8.7,5.1-12.9    c1.7-3.7,4.6-12.5,9.8-7.5c2.9,2.8,4.4,7.7,6.1,11.3c2,4.2,3.9,8.4,5.7,12.6c3.3,7.8,6.2,15.8,8.8,23.8    c5.4,16.7,9.2,33.8,11.6,51.2c0.4,3.2,5.3,1.8,4.8-1.3c-4.4-31.7-13.8-62.5-27.8-91.3c-2.3-4.6-4.7-11.2-10-13    c-5.3-1.8-8.6,2.7-10.8,6.8c-7.6,13.9-11.6,29.6-15.2,44.9c-4.4,18.6-7.8,37.5-10.3,56.4C212.9,179.5,218,179.4,218.4,176.3    L218.4,176.3z" id="XMLID_797_"/></g><g id="XMLID_442_"><path d="M225.7,129.5c16.1-1.6,32.2-1.5,48.3,0.3c3.2,0.3,3.2-4.7,0-5c-16.1-1.8-32.2-1.8-48.3-0.3    C222.5,124.9,222.5,129.9,225.7,129.5L225.7,129.5z" id="XMLID_793_"/></g><g id="XMLID_443_"><path d="M100.7,323.6c5.8,32.2,6.5,65.1,2,97.5c-0.4,3.1,4.4,4.5,4.8,1.3c4.6-33.3,4-67-2-100.2    C105,319.1,100.1,320.4,100.7,323.6L100.7,323.6z" id="XMLID_792_"/></g><g id="XMLID_444_"><path d="M103.3,325.7c13.4-12.7,34.9-4.2,39.3,12.7c2.2,8.2,0.8,17.7-4.4,24.6c-5.8,7.8-16.4,7.6-24.9,10.4    c-3,1-1.8,5.6,1.3,4.8c16.5-4,39.3,1.7,39.5,22.2c0.2,21.6-31.5,23.8-46.9,20.7c-3.1-0.6-4.5,4.2-1.3,4.8    c18.7,3.8,53.6,0.1,53.3-25.5c-0.3-23.9-26.1-31.8-45.9-27c0.4,1.6,0.9,3.2,1.3,4.8c10.6-3.5,22-3.4,28.7-13.7    c5.6-8.7,6.7-20.4,3.2-30.1c-6.8-19-31.7-26.6-46.8-12.3C97.5,324.3,101,327.9,103.3,325.7L103.3,325.7z" id="XMLID_465_"/></g><g id="XMLID_445_"><path d="M405.6,309.5c-24.1-3.8-46.3,14.6-51.4,37.6c-3,13.5-0.9,27.6,4.3,40.3c5,12.2,12.3,24,25.6,27.9    c15.3,4.5,32.7,1.6,47-4.8c2.9-1.3,0.4-5.6-2.5-4.3c-14,6.2-33.3,9.5-47.6,2.6c-13.2-6.4-20-25.3-22.3-38.8    c-2.4-14.6,0.4-30.2,10.3-41.5c8.7-10,21.9-16.3,35.3-14.2C407.4,314.8,408.8,310,405.6,309.5L405.6,309.5z" id="XMLID_786_"/></g></g></svg>