<?xml version="1.0" encoding="UTF-8" standalone="no"?>
<!-- Generator: Adobe Illustrator 18.1.1, SVG Export Plug-In . SVG Version: 6.00 Build 0)  -->

<svg
   xmlns:dc="http://purl.org/dc/elements/1.1/"
   xmlns:cc="http://creativecommons.org/ns#"
   xmlns:rdf="http://www.w3.org/1999/02/22-rdf-syntax-ns#"
   xmlns:svg="http://www.w3.org/2000/svg"
   xmlns="http://www.w3.org/2000/svg"
   xmlns:sodipodi="http://sodipodi.sourceforge.net/DTD/sodipodi-0.dtd"
   xmlns:inkscape="http://www.inkscape.org/namespaces/inkscape"
   version="1.1"
   id="Capa_1"
   x="0px"
   y="0px"
   viewBox="0 0 28.051 28.051"
   style="enable-background:new 0 0 28.051 28.051;"
   xml:space="preserve"
   sodipodi:docname="constant-matrix.svg"
   inkscape:version="0.92.3 (2405546, 2018-03-11)"><metadata
   id="metadata1064"><rdf:RDF><cc:Work
       rdf:about=""><dc:format>image/svg+xml</dc:format><dc:type
         rdf:resource="http://purl.org/dc/dcmitype/StillImage" /></cc:Work></rdf:RDF></metadata><defs
   id="defs1062" /><sodipodi:namedview
   pagecolor="#ffffff"
   bordercolor="#666666"
   borderopacity="1"
   objecttolerance="10"
   gridtolerance="10"
   guidetolerance="10"
   inkscape:pageopacity="0"
   inkscape:pageshadow="2"
   inkscape:window-width="1920"
   inkscape:window-height="992"
   id="namedview1060"
   showgrid="false"
   inkscape:zoom="8.7534428"
   inkscape:cx="36.875225"
   inkscape:cy="15.035533"
   inkscape:window-x="0"
   inkscape:window-y="24"
   inkscape:window-maximized="1"
   inkscape:current-layer="g1027" />
<g
   id="g1027">
	
	<g
   id="g997">
	</g>
	<g
   id="g999">
	</g>
	<g
   id="g1001">
	</g>
	<g
   id="g1003">
	</g>
	<g
   id="g1005">
	</g>
	<g
   id="g1007">
	</g>
	<g
   id="g1009">
	</g>
	<g
   id="g1011">
	</g>
	<g
   id="g1013">
	</g>
	<g
   id="g1015">
	</g>
	<g
   id="g1017">
	</g>
	<g
   id="g1019">
	</g>
	<g
   id="g1021">
	</g>
	<g
   id="g1023">
	</g>
	<g
   id="g1025">
	</g>
<rect
   style="fill:#56b48c;fill-opacity:1;stroke:#1a1a1a;stroke-width:1.51181102;stroke-miterlimit:4;stroke-dasharray:none;stroke-opacity:0"
   id="rect1788"
   width="25.041929"
   height="25.041929"
   x="1.3732672"
   y="1.5550231"
   ry="2.0195105" /><path
   style="fill:none;stroke:#ffffff;stroke-width:1.51181102;stroke-linecap:butt;stroke-linejoin:miter;stroke-miterlimit:4;stroke-dasharray:none;stroke-opacity:1"
   d="M 1.2896161,9.8754064 H 26.536368"
   id="path1790"
   inkscape:connector-curvature="0"
   sodipodi:nodetypes="cc" /><path
   style="fill:none;stroke:#ffffff;stroke-width:1.51181102;stroke-linecap:butt;stroke-linejoin:miter;stroke-miterlimit:4;stroke-dasharray:none;stroke-opacity:1"
   d="M 1.2896159,18.195789 H 26.727329"
   id="path1790-3"
   inkscape:connector-curvature="0"
   sodipodi:nodetypes="cc" /><g
   id="g1848"
   transform="rotate(90,31.908265,-0.4240977)"
   style="stroke-width:1.51181102;stroke-miterlimit:4;stroke-dasharray:none;stroke:#ffffff"><path
     inkscape:connector-curvature="0"
     id="path1790-5"
     d="m 33.766215,13.470135 25.437713,0"
     style="fill:none;stroke:#ffffff;stroke-width:1.51181102;stroke-linecap:butt;stroke-linejoin:miter;stroke-miterlimit:4;stroke-dasharray:none;stroke-opacity:1"
     sodipodi:nodetypes="cc" /><path
     inkscape:connector-curvature="0"
     id="path1790-3-3"
     d="M 33.766215,21.790518 H 59.089688"
     style="fill:none;stroke:#ffffff;stroke-width:1.51181102;stroke-linecap:butt;stroke-linejoin:miter;stroke-miterlimit:4;stroke-dasharray:none;stroke-opacity:1"
     sodipodi:nodetypes="cc" /></g></g>
<g
   id="g1029">
</g>
<g
   id="g1031">
</g>
<g
   id="g1033">
</g>
<g
   id="g1035">
</g>
<g
   id="g1037">
</g>
<g
   id="g1039">
</g>
<g
   id="g1041">
</g>
<g
   id="g1043">
</g>
<g
   id="g1045">
</g>
<g
   id="g1047">
</g>
<g
   id="g1049">
</g>
<g
   id="g1051">
</g>
<g
   id="g1053">
</g>
<g
   id="g1055">
</g>
<g
   id="g1057">
</g>
<path
   inkscape:connector-curvature="0"
   style="fill:#ffffff;stroke-width:0.02580824"
   d="M 6.270487,2.9742361 C 6.189809,2.8709251 6.0827066,2.8192311 5.9491485,2.8192311 c -0.1184852,0 -0.1991359,0.02268 -0.2419519,0.06806 -0.042894,0.04537 -0.1348729,0.166334 -0.2759674,0.362942 -0.1411723,0.19658 -0.3030922,0.374269 -0.4857896,0.533043 -0.182772,0.158773 -0.4266095,0.310007 -0.7315333,0.453656 -0.2041442,0.0958 -0.3465805,0.173897 -0.4272042,0.234392 -0.080678,0.06049 -0.1209894,0.155005 -0.1209894,0.283527 0,0.110925 0.040933,0.208582 0.122875,0.293001 0.081861,0.08447 0.1758033,0.126643 0.2816451,0.126643 0.2217422,0 0.6527415,-0.24572 1.2929413,-0.737187 v 3.4402635 c 0,0.201667 0.046608,0.35414 0.1398783,0.457451 0.093219,0.103311 0.2167129,0.155005 0.3704778,0.155005 0.3452626,0 0.5179193,-0.253283 0.5179193,-0.759874 V 3.4014421 c 2.69e-5,-0.181457 -0.040312,-0.323815 -0.1209624,-0.427204 z"
   id="path1173-5" /><path
   inkscape:connector-curvature="0"
   style="fill:#ffffff;stroke-width:0.02580824"
   d="m 14.530285,2.9742361 c -0.08068,-0.103311 -0.18778,-0.155005 -0.321338,-0.155005 -0.118486,0 -0.199136,0.02268 -0.241952,0.06806 -0.04289,0.04537 -0.134873,0.166334 -0.275968,0.362942 -0.141172,0.19658 -0.303092,0.374269 -0.485789,0.533043 -0.182772,0.158773 -0.42661,0.310007 -0.731534,0.453656 -0.204144,0.0958 -0.34658,0.173897 -0.427204,0.234392 -0.08068,0.06049 -0.120989,0.155005 -0.120989,0.283527 0,0.110925 0.04093,0.208582 0.122875,0.293001 0.08186,0.08447 0.175803,0.126643 0.281645,0.126643 0.221742,0 0.652741,-0.24572 1.292941,-0.737187 v 3.4402635 c 0,0.201667 0.04661,0.35414 0.139879,0.457451 0.09322,0.103311 0.216712,0.155005 0.370477,0.155005 0.345263,0 0.51792,-0.253283 0.51792,-0.759874 V 3.4014421 c 2.6e-5,-0.181457 -0.04031,-0.323815 -0.120963,-0.427204 z"
   id="path1173-5-6" /><path
   inkscape:connector-curvature="0"
   style="fill:#ffffff;stroke-width:0.02580824"
   d="m 22.830474,2.9742361 c -0.08068,-0.103311 -0.187781,-0.155005 -0.321339,-0.155005 -0.118485,0 -0.199136,0.02268 -0.241952,0.06806 -0.04289,0.04537 -0.134873,0.166334 -0.275967,0.362942 -0.141173,0.19658 -0.303092,0.374269 -0.48579,0.533043 -0.182772,0.158773 -0.426609,0.310007 -0.731533,0.453656 -0.204144,0.0958 -0.346581,0.173897 -0.427204,0.234392 -0.08068,0.06049 -0.12099,0.155005 -0.12099,0.283527 0,0.110925 0.04093,0.208582 0.122875,0.293001 0.08186,0.08447 0.175804,0.126643 0.281645,0.126643 0.221743,0 0.652742,-0.24572 1.292942,-0.737187 v 3.4402635 c 0,0.201667 0.04661,0.35414 0.139878,0.457451 0.09322,0.103311 0.216713,0.155005 0.370478,0.155005 0.345262,0 0.517919,-0.253283 0.517919,-0.759874 V 3.4014421 c 2.7e-5,-0.181457 -0.04031,-0.323815 -0.120962,-0.427204 z"
   id="path1173-5-2" /><path
   inkscape:connector-curvature="0"
   style="fill:#ffffff;stroke-width:0.02580824"
   d="m 22.830473,11.33501 c -0.08068,-0.103311 -0.18778,-0.155005 -0.321338,-0.155005 -0.118486,0 -0.199136,0.02268 -0.241952,0.06806 -0.04289,0.04537 -0.134873,0.166334 -0.275968,0.362942 -0.141172,0.19658 -0.303092,0.374269 -0.485789,0.533043 -0.182772,0.158773 -0.42661,0.310007 -0.731534,0.453656 -0.204144,0.0958 -0.34658,0.173897 -0.427204,0.234392 -0.08068,0.06049 -0.120989,0.155004 -0.120989,0.283526 0,0.110925 0.04093,0.208582 0.122875,0.293001 0.08186,0.08447 0.175803,0.126643 0.281645,0.126643 0.221742,0 0.652741,-0.24572 1.292941,-0.737187 v 3.440263 c 0,0.201667 0.04661,0.35414 0.139879,0.457451 0.09322,0.103311 0.216712,0.155005 0.370477,0.155005 0.345263,0 0.51792,-0.253283 0.51792,-0.759874 v -4.328711 c 2.6e-5,-0.181457 -0.04031,-0.323815 -0.120963,-0.427204 z"
   id="path1173-5-9" /><path
   inkscape:connector-curvature="0"
   style="fill:#ffffff;stroke-width:0.02580824"
   d="m 14.530285,11.335009 c -0.08068,-0.103311 -0.18778,-0.155005 -0.321338,-0.155005 -0.118486,0 -0.199136,0.02268 -0.241952,0.06806 -0.04289,0.04537 -0.134873,0.166334 -0.275968,0.362942 -0.141172,0.19658 -0.303092,0.374269 -0.485789,0.533043 -0.182772,0.158773 -0.42661,0.310007 -0.731534,0.453656 -0.204144,0.0958 -0.34658,0.173897 -0.427204,0.234392 -0.08068,0.06049 -0.120989,0.155005 -0.120989,0.283527 0,0.110925 0.04093,0.208582 0.122875,0.293001 0.08186,0.08447 0.175803,0.126643 0.281645,0.126643 0.221742,0 0.652741,-0.24572 1.292941,-0.737187 v 3.440264 c 0,0.201667 0.04661,0.35414 0.139879,0.457451 0.09322,0.103311 0.216712,0.155005 0.370477,0.155005 0.345263,0 0.51792,-0.253283 0.51792,-0.759874 v -4.328712 c 2.6e-5,-0.181457 -0.04031,-0.323815 -0.120963,-0.427204 z"
   id="path1173-5-1" /><path
   inkscape:connector-curvature="0"
   style="fill:#ffffff;stroke-width:0.02580824"
   d="m 6.2704866,11.335009 c -0.08068,-0.103311 -0.18778,-0.155005 -0.321338,-0.155005 -0.118485,0 -0.199136,0.02268 -0.241952,0.06806 -0.04289,0.04537 -0.134873,0.166334 -0.275968,0.362942 -0.141172,0.19658 -0.303092,0.374269 -0.485789,0.533043 -0.182772,0.158773 -0.42661,0.310007 -0.731533,0.453656 -0.204145,0.0958 -0.346581,0.173897 -0.427205,0.234392 -0.08068,0.06049 -0.120989,0.155005 -0.120989,0.283527 0,0.110925 0.04093,0.208582 0.122875,0.293001 0.08186,0.08447 0.175803,0.126643 0.281645,0.126643 0.221742,0 0.652742,-0.24572 1.292941,-0.737187 v 3.440264 c 0,0.201667 0.04661,0.35414 0.139879,0.457451 0.09322,0.103311 0.216713,0.155005 0.370477,0.155005 0.345263,0 0.51792,-0.253283 0.51792,-0.759874 v -4.328712 c 2.7e-5,-0.181457 -0.04031,-0.323815 -0.120963,-0.427204 z"
   id="path1173-5-27" /><path
   inkscape:connector-curvature="0"
   style="fill:#ffffff;stroke-width:0.02580824"
   d="m 6.2704871,19.695783 c -0.080678,-0.103311 -0.1877804,-0.155005 -0.3213385,-0.155005 -0.1184853,0 -0.1991359,0.02268 -0.241952,0.06806 -0.042894,0.04537 -0.1348729,0.166334 -0.2759673,0.362942 -0.1411723,0.19658 -0.3030922,0.374269 -0.4857897,0.533043 -0.182772,0.158773 -0.4266094,0.310007 -0.7315333,0.453656 -0.2041442,0.0958 -0.3465804,0.173897 -0.4272041,0.234392 -0.080678,0.06049 -0.1209894,0.155005 -0.1209894,0.283527 0,0.110925 0.040933,0.208582 0.122875,0.293001 0.081861,0.08447 0.1758033,0.126643 0.281645,0.126643 0.2217422,0 0.6527416,-0.24572 1.2929413,-0.737187 v 3.440264 c 0,0.201667 0.046608,0.35414 0.1398783,0.457451 0.093219,0.103311 0.2167129,0.155005 0.3704778,0.155005 0.3452626,0 0.5179193,-0.253283 0.5179193,-0.759874 v -4.328712 c 2.69e-5,-0.181457 -0.040312,-0.323815 -0.1209624,-0.427204 z"
   id="path1173-5-0" /><path
   inkscape:connector-curvature="0"
   style="fill:#ffffff;stroke-width:0.02580824"
   d="m 14.530285,19.695783 c -0.08068,-0.103311 -0.18778,-0.155004 -0.321338,-0.155004 -0.118485,0 -0.199136,0.02268 -0.241952,0.06806 -0.04289,0.04537 -0.134873,0.166334 -0.275968,0.362943 -0.141172,0.19658 -0.303092,0.374269 -0.485789,0.533042 -0.182772,0.158773 -0.42661,0.310007 -0.731533,0.453656 -0.204145,0.0958 -0.346581,0.173897 -0.427205,0.234392 -0.08068,0.06049 -0.120989,0.155005 -0.120989,0.283527 0,0.110925 0.04093,0.208582 0.122875,0.293001 0.08186,0.08447 0.175803,0.126643 0.281645,0.126643 0.221742,0 0.652742,-0.245719 1.292941,-0.737186 v 3.440262 c 0,0.201667 0.04661,0.35414 0.139879,0.457451 0.09322,0.103311 0.216713,0.155005 0.370477,0.155005 0.345263,0 0.51792,-0.253283 0.51792,-0.759874 v -4.328711 c 2.7e-5,-0.181457 -0.04031,-0.323815 -0.120963,-0.427204 z"
   id="path1173-5-93" /><path
   inkscape:connector-curvature="0"
   style="fill:#ffffff;stroke-width:0.02580824"
   d="m 22.830474,19.695783 c -0.08068,-0.103311 -0.187781,-0.155004 -0.321339,-0.155004 -0.118485,0 -0.199136,0.02268 -0.241952,0.06806 -0.04289,0.04537 -0.134873,0.166334 -0.275967,0.362943 -0.141173,0.19658 -0.303092,0.374269 -0.48579,0.533042 -0.182772,0.158773 -0.426609,0.310007 -0.731533,0.453656 -0.204144,0.0958 -0.346581,0.173897 -0.427204,0.234392 -0.08068,0.06049 -0.12099,0.155005 -0.12099,0.283527 0,0.110925 0.04093,0.208582 0.122875,0.293001 0.08186,0.08447 0.175804,0.126643 0.281645,0.126643 0.221743,0 0.652742,-0.245719 1.292942,-0.737186 v 3.440262 c 0,0.201667 0.04661,0.35414 0.139878,0.457451 0.09322,0.103311 0.216713,0.155005 0.370478,0.155005 0.345262,0 0.517919,-0.253283 0.517919,-0.759874 v -4.328711 c 2.7e-5,-0.181457 -0.04031,-0.323815 -0.120962,-0.427204 z"
   id="path1173-5-60" /></svg>