<?xml version="1.0" encoding="utf-8"?>
<!-- Generator: Adobe Illustrator 19.2.1, SVG Export Plug-In . SVG Version: 6.00 Build 0)  -->
<svg version="1.1" id="Layer_1" xmlns="http://www.w3.org/2000/svg" xmlns:xlink="http://www.w3.org/1999/xlink" x="0px" y="0px"
	 width="1000px" height="1000px" viewBox="0 0 1000 1000" style="enable-background:new 0 0 1000 1000;" xml:space="preserve">
<style type="text/css">
	.st0{fill:none;stroke:#000000;stroke-miterlimit:10;}
</style>
<rect x="799.5" y="0.5" class="st0" width="200" height="200"/>
<rect x="599.5" y="0.5" class="st0" width="200" height="200"/>
<rect x="399.5" y="0.5" class="st0" width="200" height="200"/>
<rect x="199.5" y="0.5" class="st0" width="200" height="200"/>
<rect x="-0.5" y="0.5" class="st0" width="200" height="200"/>
<rect x="799.5" y="200.5" class="st0" width="200" height="200"/>
<rect x="599.5" y="200.5" class="st0" width="200" height="200"/>
<rect x="399.5" y="200.5" class="st0" width="200" height="200"/>
<rect x="199.5" y="200.5" class="st0" width="200" height="200"/>
<rect x="-0.5" y="200.5" class="st0" width="200" height="200"/>
<rect x="799.5" y="400.5" class="st0" width="200" height="200"/>
<rect x="599.5" y="400.5" class="st0" width="200" height="200"/>
<rect x="399.5" y="400.5" class="st0" width="200" height="200"/>
<rect x="199.5" y="400.5" class="st0" width="200" height="200"/>
<rect x="-0.5" y="400.5" class="st0" width="200" height="200"/>
<rect x="799.5" y="600.5" class="st0" width="200" height="200"/>
<rect x="599.5" y="600.5" class="st0" width="200" height="200"/>
<rect x="399.5" y="600.5" class="st0" width="200" height="200"/>
<rect x="199.5" y="600.5" class="st0" width="200" height="200"/>
<rect x="-0.5" y="600.5" class="st0" width="200" height="200"/>
<rect x="799.5" y="800.5" class="st0" width="200" height="200"/>
<rect x="599.5" y="800.5" class="st0" width="200" height="200"/>
<rect x="399.5" y="800.5" class="st0" width="200" height="200"/>
<rect x="199.5" y="800.5" class="st0" width="200" height="200"/>
<rect x="-0.5" y="800.5" class="st0" width="200" height="200"/>
</svg>
