<?xml version="1.0" encoding="UTF-8" standalone="no"?>
<svg
   xmlns:dc="http://purl.org/dc/elements/1.1/"
   xmlns:cc="http://creativecommons.org/ns#"
   xmlns:rdf="http://www.w3.org/1999/02/22-rdf-syntax-ns#"
   xmlns:svg="http://www.w3.org/2000/svg"
   xmlns="http://www.w3.org/2000/svg"
   xmlns:sodipodi="http://sodipodi.sourceforge.net/DTD/sodipodi-0.dtd"
   xmlns:inkscape="http://www.inkscape.org/namespaces/inkscape"
   style="enable-background:new 0 0 50 50;"
   version="1.1"
   viewBox="0 0 50 50"
   xml:space="preserve"
   id="svg976"
   sodipodi:docname="hide.svg"
   inkscape:version="0.92.3 (2405546, 2018-03-11)"><metadata
     id="metadata982"><rdf:RDF><cc:Work
         rdf:about=""><dc:format>image/svg+xml</dc:format><dc:type
           rdf:resource="http://purl.org/dc/dcmitype/StillImage" /><dc:title></dc:title></cc:Work></rdf:RDF></metadata><defs
     id="defs980" /><sodipodi:namedview
     pagecolor="#ffffff"
     bordercolor="#666666"
     borderopacity="1"
     objecttolerance="10"
     gridtolerance="10"
     guidetolerance="10"
     inkscape:pageopacity="0"
     inkscape:pageshadow="2"
     inkscape:window-width="1920"
     inkscape:window-height="1052"
     id="namedview978"
     showgrid="false"
     inkscape:zoom="16.28"
     inkscape:cx="25.4914"
     inkscape:cy="25"
     inkscape:window-x="0"
     inkscape:window-y="0"
     inkscape:window-maximized="0"
     inkscape:current-layer="Layer_1" /><g
     id="Layer_1"><path
       d="M25,39c13.036,0,23.352-12.833,23.784-13.379L49.275,25l-0.491-0.621C48.352,23.833,38.036,11,25,11   S1.648,23.833,1.216,24.379L0.725,25l0.491,0.621C1.648,26.167,11.964,39,25,39z M25,13c10.494,0,19.47,9.46,21.69,12   C44.473,27.542,35.509,37,25,37C14.506,37,5.53,27.54,3.31,25C5.527,22.458,14.491,13,25,13z"
       id="path969"
       style="fill:#000000;fill-opacity:0.25390625" /><path
       d="M25,34c4.963,0,9-4.038,9-9s-4.037-9-9-9s-9,4.038-9,9S20.037,34,25,34z M25,18c3.859,0,7,3.14,7,7s-3.141,7-7,7   s-7-3.14-7-7S21.141,18,25,18z"
       id="path971"
       style="fill:#000000;fill-opacity:0.25390625" /><path
       style="fill:none;fill-rule:evenodd;stroke:#ff0000;stroke-width:1.0015748;stroke-linecap:round;stroke-linejoin:miter;stroke-opacity:1;stroke-miterlimit:4;stroke-dasharray:none"
       d="M 39.987715,8.5995086 8.9066339,41.769042"
       id="path986"
       inkscape:connector-curvature="0" /></g><g
     id="g974" /></svg>