<?xml version="1.0" encoding="UTF-8" standalone="no"?>
<!-- Generator: Adobe Illustrator 19.0.0, SVG Export Plug-In . SVG Version: 6.00 Build 0)  -->

<svg
   xmlns:dc="http://purl.org/dc/elements/1.1/"
   xmlns:cc="http://creativecommons.org/ns#"
   xmlns:rdf="http://www.w3.org/1999/02/22-rdf-syntax-ns#"
   xmlns:svg="http://www.w3.org/2000/svg"
   xmlns="http://www.w3.org/2000/svg"
   xmlns:sodipodi="http://sodipodi.sourceforge.net/DTD/sodipodi-0.dtd"
   xmlns:inkscape="http://www.inkscape.org/namespaces/inkscape"
   version="1.1"
   id="Capa_1"
   x="0px"
   y="0px"
   viewBox="0 0 57 57"
   style="enable-background:new 0 0 57 57;"
   xml:space="preserve"
   sodipodi:docname="script-pause.svg"
   inkscape:version="0.92.4 (5da689c313, 2019-01-14)"><metadata
   id="metadata1051"><rdf:RDF><cc:Work
       rdf:about=""><dc:format>image/svg+xml</dc:format><dc:type
         rdf:resource="http://purl.org/dc/dcmitype/StillImage" /><dc:title></dc:title></cc:Work></rdf:RDF></metadata><defs
   id="defs1049" /><sodipodi:namedview
   pagecolor="#ffffff"
   bordercolor="#666666"
   borderopacity="1"
   objecttolerance="10"
   gridtolerance="10"
   guidetolerance="10"
   inkscape:pageopacity="0"
   inkscape:pageshadow="2"
   inkscape:window-width="1920"
   inkscape:window-height="1051"
   id="namedview1047"
   showgrid="false"
   inkscape:zoom="7.131579"
   inkscape:cx="-20.605273"
   inkscape:cy="21.804235"
   inkscape:window-x="0"
   inkscape:window-y="0"
   inkscape:window-maximized="0"
   inkscape:current-layer="Capa_1" />
<circle
   style="fill:#7383BF;"
   cx="11"
   cy="28.456"
   r="9"
   id="circle1004" />
<circle
   style="fill:#7383BF;"
   cx="46"
   cy="48"
   r="9"
   id="circle1006" />
<circle
   style="fill:#7383BF;"
   cx="46"
   cy="9"
   r="9"
   id="circle1008" />
<g
   id="g1014">
	<path
   style="fill:#424A60;"
   d="M19.017,25.36c0.176,0,0.354-0.046,0.515-0.144l18.908-11.388c0.473-0.285,0.625-0.899,0.34-1.372   c-0.285-0.474-0.899-0.627-1.373-0.341L18.5,23.504c-0.473,0.285-0.625,0.899-0.34,1.372C18.347,25.188,18.677,25.36,19.017,25.36z   "
   id="path1010" />
	<path
   style="fill:#424A60;"
   d="M38.442,43.171L19.535,31.694c-0.472-0.287-1.087-0.138-1.374,0.336   c-0.287,0.472-0.136,1.087,0.336,1.373L37.404,44.88c0.162,0.099,0.341,0.146,0.518,0.146c0.338,0,0.667-0.171,0.856-0.481   C39.065,44.072,38.915,43.457,38.442,43.171z"
   id="path1012" />
</g>
<g
   id="g1016">
</g>
<g
   id="g1018">
</g>
<g
   id="g1020">
</g>
<g
   id="g1022">
</g>
<g
   id="g1024">
</g>
<g
   id="g1026">
</g>
<g
   id="g1028">
</g>
<g
   id="g1030">
</g>
<g
   id="g1032">
</g>
<g
   id="g1034">
</g>
<g
   id="g1036">
</g>
<g
   id="g1038">
</g>
<g
   id="g1040">
</g>
<g
   id="g1042">
</g>
<g
   id="g1044">
</g>
<g
   id="g1586"
   transform="matrix(1.4415748,0,0,1.4415748,16.169738,36.571946)"><g
     id="g1529">
	<path
   id="path1525"
   d="m 2.5,0 c -1.104,0 -2,0.896 -2,2 v 8 c 0,1.104 0.896,2 2,2 1.104,0 2,-0.896 2,-2 V 2 C 4.5,0.896 3.604,0 2.5,0 Z"
   inkscape:connector-curvature="0"
   style="fill:#d4b331" />
	<path
   id="path1527"
   d="m 9.5,0 c -1.104,0 -2,0.896 -2,2 v 8 c 0,1.104 0.896,2 2,2 1.104,0 2,-0.896 2,-2 V 2 c 0,-1.104 -0.896,-2 -2,-2 z"
   inkscape:connector-curvature="0"
   style="fill:#d4b331" />
</g><g
     id="g1531">
</g><g
     id="g1533">
</g><g
     id="g1535">
</g><g
     id="g1537">
</g><g
     id="g1539">
</g><g
     id="g1541">
</g><g
     id="g1543">
</g><g
     id="g1545">
</g><g
     id="g1547">
</g><g
     id="g1549">
</g><g
     id="g1551">
</g><g
     id="g1553">
</g><g
     id="g1555">
</g><g
     id="g1557">
</g><g
     id="g1559">
</g></g></svg>