<?xml version="1.0" encoding="UTF-8" standalone="no"?>
<!-- Generator: Adobe Illustrator 19.0.0, SVG Export Plug-In . SVG Version: 6.00 Build 0)  -->

<svg
   xmlns:dc="http://purl.org/dc/elements/1.1/"
   xmlns:cc="http://creativecommons.org/ns#"
   xmlns:rdf="http://www.w3.org/1999/02/22-rdf-syntax-ns#"
   xmlns:svg="http://www.w3.org/2000/svg"
   xmlns="http://www.w3.org/2000/svg"
   xmlns:sodipodi="http://sodipodi.sourceforge.net/DTD/sodipodi-0.dtd"
   xmlns:inkscape="http://www.inkscape.org/namespaces/inkscape"
   version="1.1"
   id="Capa_1"
   x="0px"
   y="0px"
   viewBox="0 0 57 57"
   style="enable-background:new 0 0 57 57;"
   xml:space="preserve"
   sodipodi:docname="script-play.svg"
   inkscape:version="0.92.4 (5da689c313, 2019-01-14)"><metadata
   id="metadata1051"><rdf:RDF><cc:Work
       rdf:about=""><dc:format>image/svg+xml</dc:format><dc:type
         rdf:resource="http://purl.org/dc/dcmitype/StillImage" /><dc:title></dc:title></cc:Work></rdf:RDF></metadata><defs
   id="defs1049" /><sodipodi:namedview
   pagecolor="#ffffff"
   bordercolor="#666666"
   borderopacity="1"
   objecttolerance="10"
   gridtolerance="10"
   guidetolerance="10"
   inkscape:pageopacity="0"
   inkscape:pageshadow="2"
   inkscape:window-width="1920"
   inkscape:window-height="1051"
   id="namedview1047"
   showgrid="false"
   inkscape:zoom="7.131579"
   inkscape:cx="11.031089"
   inkscape:cy="21.788053"
   inkscape:window-x="0"
   inkscape:window-y="0"
   inkscape:window-maximized="0"
   inkscape:current-layer="Capa_1" />
<circle
   style="fill:#7383BF;"
   cx="11"
   cy="28.456"
   r="9"
   id="circle1004" />
<circle
   style="fill:#7383BF;"
   cx="46"
   cy="48"
   r="9"
   id="circle1006" />
<circle
   style="fill:#7383BF;"
   cx="46"
   cy="9"
   r="9"
   id="circle1008" />
<g
   id="g1014">
	<path
   style="fill:#424A60;"
   d="M19.017,25.36c0.176,0,0.354-0.046,0.515-0.144l18.908-11.388c0.473-0.285,0.625-0.899,0.34-1.372   c-0.285-0.474-0.899-0.627-1.373-0.341L18.5,23.504c-0.473,0.285-0.625,0.899-0.34,1.372C18.347,25.188,18.677,25.36,19.017,25.36z   "
   id="path1010" />
	<path
   style="fill:#424A60;"
   d="M38.442,43.171L19.535,31.694c-0.472-0.287-1.087-0.138-1.374,0.336   c-0.287,0.472-0.136,1.087,0.336,1.373L37.404,44.88c0.162,0.099,0.341,0.146,0.518,0.146c0.338,0,0.667-0.171,0.856-0.481   C39.065,44.072,38.915,43.457,38.442,43.171z"
   id="path1012" />
</g>
<g
   id="g1016">
</g>
<g
   id="g1018">
</g>
<g
   id="g1020">
</g>
<g
   id="g1022">
</g>
<g
   id="g1024">
</g>
<g
   id="g1026">
</g>
<g
   id="g1028">
</g>
<g
   id="g1030">
</g>
<g
   id="g1032">
</g>
<g
   id="g1034">
</g>
<g
   id="g1036">
</g>
<g
   id="g1038">
</g>
<g
   id="g1040">
</g>
<g
   id="g1042">
</g>
<g
   id="g1044">
</g>
<g
   id="g1205"
   transform="matrix(0.43614968,0,0,0.43614968,13.763937,33.571517)"><polygon
     id="polygon1031"
     points="10.071,26.077 10.071,5.713 39.071,25.713 10.071,45.713 "
     style="fill:#0bba16;fill-opacity:1;stroke:#424a60;stroke-width:6;stroke-miterlimit:10" /><g
     id="g1033">
</g><g
     id="g1035">
</g><g
     id="g1037">
</g><g
     id="g1039">
</g><g
     id="g1041">
</g><g
     id="g1043">
</g><g
     id="g1045">
</g><g
     id="g1047">
</g><g
     id="g1049">
</g><g
     id="g1051">
</g><g
     id="g1053">
</g><g
     id="g1055">
</g><g
     id="g1057">
</g><g
     id="g1059">
</g><g
     id="g1061">
</g></g></svg>