<?xml version="1.0" encoding="utf-8"?>
<!-- Svg Vector Icons : http://www.onlinewebfonts.com/icon -->
<!DOCTYPE svg PUBLIC "-//W3C//DTD SVG 1.1//EN" "http://www.w3.org/Graphics/SVG/1.1/DTD/svg11.dtd">
<svg version="1.1" xmlns="http://www.w3.org/2000/svg" xmlns:xlink="http://www.w3.org/1999/xlink" x="0px" y="0px" viewBox="0 0 1000 1000" enable-background="new 0 0 1000 1000" xml:space="preserve">
<metadata> Svg Vector Icons : http://www.onlinewebfonts.com/icon </metadata>
<g><path d="M907,493.9L777.9,623l-37.5-37.5l130.2-130.2c89.4-89.4,89.1-234.8-0.7-324.6C780,40.8,634.7,40.5,545.2,130L415.1,260.2L377,222.1L506.1,93C616.8-17.7,796.3-17.7,907,93C1017.7,203.7,1017.7,383.2,907,493.9z M691.3,309.6c10.4,10.3,10.4,27,0,37.4L346.5,691.1c-10.4,10.3-27.1,10.3-37.5,0c-10.4-10.3-10.4-27.1,0-37.4l344.9-344.1C664.2,299.3,681,299.3,691.3,309.6z M455.3,870.7l130.2-130.3l37.5,37.5L493.9,907c-110.7,110.7-290.2,110.7-400.9,0C-17.7,796.3-17.7,616.8,93,506.1L222.1,377l38.1,38.1L130,545.4c-89.4,89.4-89.1,234.8,0.7,324.6C220.5,959.8,365.8,960.1,455.3,870.7z"/></g>
</svg>