<?xml version="1.0" encoding="iso-8859-1"?>
<!-- Generator: Adobe Illustrator 19.0.0, SVG Export Plug-In . SVG Version: 6.00 Build 0)  -->
<svg version="1.1" id="Capa_1" xmlns="http://www.w3.org/2000/svg" xmlns:xlink="http://www.w3.org/1999/xlink" x="0px" y="0px"
	 viewBox="0 0 512 512" style="enable-background:new 0 0 512 512;" xml:space="preserve">
<g>
	<path style="fill:#303C42;" d="M469.333,64h-32c-5.896,0-10.667,4.771-10.667,10.667c0,5.896,4.771,10.667,10.667,10.667h32
		c11.76,0,21.333,9.573,21.333,21.333v32c0,5.896,4.771,10.667,10.667,10.667S512,144.563,512,138.667v-32
		C512,83.135,492.865,64,469.333,64z"/>
	<path style="fill:#303C42;" d="M501.333,362.667c-5.896,0-10.667,4.771-10.667,10.667v32c0,11.76-9.573,21.333-21.333,21.333h-32
		c-5.896,0-10.667,4.771-10.667,10.667S431.438,448,437.333,448h32C492.865,448,512,428.865,512,405.333v-32
		C512,367.438,507.229,362.667,501.333,362.667z"/>
	<path style="fill:#303C42;" d="M74.667,426.667h-32c-11.76,0-21.333-9.573-21.333-21.333v-32c0-5.896-4.771-10.667-10.667-10.667
		S0,367.438,0,373.333v32C0,428.865,19.135,448,42.667,448h32c5.896,0,10.667-4.771,10.667-10.667S80.563,426.667,74.667,426.667z"
		/>
	<path style="fill:#303C42;" d="M74.667,64h-32C19.135,64,0,83.135,0,106.667v32c0,5.896,4.771,10.667,10.667,10.667
		s10.667-4.771,10.667-10.667v-32c0-11.76,9.573-21.333,21.333-21.333h32c5.896,0,10.667-4.771,10.667-10.667
		C85.333,68.771,80.563,64,74.667,64z"/>
	<path style="fill:#303C42;" d="M228.594,198.417c5.323-2.542,7.573-8.906,5.031-14.219c-2.542-5.323-8.938-7.573-14.219-5.031
		c-30.063,14.354-48.74,43.792-48.74,76.833s18.677,62.479,48.74,76.833c1.479,0.708,3.042,1.042,4.583,1.042
		c3.99,0,7.802-2.24,9.635-6.073c2.542-5.313,0.292-11.677-5.031-14.219C206.021,302.802,192,280.74,192,256
		S206.021,209.198,228.594,198.417z"/>
	<path style="fill:#303C42;" d="M292.594,179.167c-5.344-2.542-11.677-0.292-14.219,5.031c-2.542,5.313-0.292,11.677,5.031,14.219
		C305.979,209.198,320,231.26,320,256s-14.021,46.802-36.594,57.583c-5.323,2.542-7.573,8.906-5.031,14.219
		c1.833,3.833,5.646,6.073,9.635,6.073c1.542,0,3.104-0.333,4.583-1.042c30.063-14.354,48.74-43.792,48.74-76.833
		S322.656,193.521,292.594,179.167z"/>
	<path style="fill:#303C42;" d="M256,234.667c-11.76,0-21.333,9.573-21.333,21.333c0,11.76,9.573,21.333,21.333,21.333
		c11.76,0,21.333-9.573,21.333-21.333C277.333,244.24,267.76,234.667,256,234.667z M256.01,256c0,0-0.01-0.01-0.01-0.021
		L266.667,256H256.01z"/>
</g>
<linearGradient id="SVGID_1_" gradientUnits="userSpaceOnUse" x1="-47.4108" y1="640.4102" x2="-21.9955" y2="628.5585" gradientTransform="matrix(21.3333 0 0 -21.3333 996.3334 13791.667)">
	<stop  offset="0" style="stop-color:#FFFFFF;stop-opacity:0.2"/>
	<stop  offset="1" style="stop-color:#FFFFFF;stop-opacity:0"/>
</linearGradient>
<path style="fill:url(#SVGID_1_);" d="M469.333,64h-32c-5.896,0-10.667,4.771-10.667,10.667c0,5.896,4.771,10.667,10.667,10.667h32
	c11.76,0,21.333,9.573,21.333,21.333v32c0,5.896,4.771,10.667,10.667,10.667S512,144.563,512,138.667v-32
	C512,83.135,492.865,64,469.333,64z M501.333,362.667c-5.896,0-10.667,4.771-10.667,10.667v32c0,11.76-9.573,21.333-21.333,21.333
	h-32c-5.896,0-10.667,4.771-10.667,10.667S431.438,448,437.333,448h32C492.865,448,512,428.865,512,405.333v-32
	C512,367.438,507.229,362.667,501.333,362.667z M74.667,426.667h-32c-11.76,0-21.333-9.573-21.333-21.333v-32
	c0-5.896-4.771-10.667-10.667-10.667S0,367.438,0,373.333v32C0,428.865,19.135,448,42.667,448h32
	c5.896,0,10.667-4.771,10.667-10.667S80.563,426.667,74.667,426.667z M74.667,64h-32C19.135,64,0,83.135,0,106.667v32
	c0,5.896,4.771,10.667,10.667,10.667s10.667-4.771,10.667-10.667v-32c0-11.76,9.573-21.333,21.333-21.333h32
	c5.896,0,10.667-4.771,10.667-10.667C85.333,68.771,80.563,64,74.667,64z M228.594,198.417c5.323-2.542,7.573-8.906,5.031-14.219
	c-2.542-5.323-8.938-7.573-14.219-5.031c-30.063,14.354-48.74,43.792-48.74,76.833s18.677,62.479,48.74,76.833
	c1.479,0.708,3.042,1.042,4.583,1.042c3.99,0,7.802-2.24,9.635-6.073c2.542-5.313,0.292-11.677-5.031-14.219
	C206.021,302.802,192,280.74,192,256S206.021,209.198,228.594,198.417z M292.594,179.167c-5.344-2.542-11.677-0.292-14.219,5.031
	c-2.542,5.313-0.292,11.677,5.031,14.219C305.979,209.198,320,231.26,320,256s-14.021,46.802-36.594,57.583
	c-5.323,2.542-7.573,8.906-5.031,14.219c1.833,3.833,5.646,6.073,9.635,6.073c1.542,0,3.104-0.333,4.583-1.042
	c30.063-14.354,48.74-43.792,48.74-76.833S322.656,193.521,292.594,179.167z M256,234.667c-11.76,0-21.333,9.573-21.333,21.333
	c0,11.76,9.573,21.333,21.333,21.333c11.76,0,21.333-9.573,21.333-21.333C277.333,244.24,267.76,234.667,256,234.667z M256.01,256
	c0,0-0.01-0.01-0.01-0.021L266.667,256H256.01z"/>
<g>
</g>
<g>
</g>
<g>
</g>
<g>
</g>
<g>
</g>
<g>
</g>
<g>
</g>
<g>
</g>
<g>
</g>
<g>
</g>
<g>
</g>
<g>
</g>
<g>
</g>
<g>
</g>
<g>
</g>
</svg>
