<?xml version="1.0" encoding="UTF-8" standalone="no"?>
<svg
   xmlns:dc="http://purl.org/dc/elements/1.1/"
   xmlns:cc="http://creativecommons.org/ns#"
   xmlns:rdf="http://www.w3.org/1999/02/22-rdf-syntax-ns#"
   xmlns:svg="http://www.w3.org/2000/svg"
   xmlns="http://www.w3.org/2000/svg"
   xmlns:xlink="http://www.w3.org/1999/xlink"
   xmlns:sodipodi="http://sodipodi.sourceforge.net/DTD/sodipodi-0.dtd"
   xmlns:inkscape="http://www.inkscape.org/namespaces/inkscape"
   viewBox="0 0 259.59229 223.01241"
   id="svg2"
   version="1.1"
   inkscape:version="0.91 r13725"
   sodipodi:docname="Gaussian.svg"
   width="259.59229"
   height="223.01241">
  <metadata
     id="metadata719">
    <rdf:RDF>
      <cc:Work
         rdf:about="">
        <dc:format>image/svg+xml</dc:format>
        <dc:type
           rdf:resource="http://purl.org/dc/dcmitype/StillImage" />
        <dc:title>Window function and its Fourier transform – Approximate confined Gaussian (sigma_t = 0.1N)</dc:title>
      </cc:Work>
    </rdf:RDF>
  </metadata>
  <defs
     id="defs717">
    <defs
       id="defs11">
      <circle
         r="0.5"
         id="gpDot"
         cx="0"
         cy="0"
         style="stroke-width:0.5" />
      <path
         d="M -1,0 1,0 M 0,-1 0,1"
         id="gpPt0"
         inkscape:connector-curvature="0"
         style="stroke:currentColor;stroke-width:0.29899999" />
      <path
         d="M -1,-1 1,1 M 1,-1 -1,1"
         id="gpPt1"
         inkscape:connector-curvature="0"
         style="stroke:currentColor;stroke-width:0.29899999" />
      <path
         d="M -1,0 1,0 M 0,-1 0,1 m -1,-2 2,2 m -2,0 2,-2"
         id="gpPt2"
         inkscape:connector-curvature="0"
         style="stroke:currentColor;stroke-width:0.29899999" />
      <rect
         height="2"
         width="2"
         y="-1"
         x="-1"
         id="gpPt3"
         style="stroke:currentColor;stroke-width:0.29899999" />
      <rect
         height="2"
         width="2"
         y="-1"
         x="-1"
         id="gpPt4"
         style="fill:currentColor;stroke:currentColor;stroke-width:0.29899999" />
      <circle
         r="1"
         cy="0"
         cx="0"
         id="gpPt5"
         style="stroke:currentColor;stroke-width:0.29899999" />
      <use
         id="gpPt6"
         xlink:href="#gpPt5"
         style="fill:currentColor;stroke:none"
         x="0"
         y="0"
         width="100%"
         height="100%" />
      <path
         d="m 0,-1.33 -1.33,2 2.66,0 z"
         id="gpPt7"
         inkscape:connector-curvature="0"
         style="stroke:currentColor;stroke-width:0.29899999" />
      <use
         id="gpPt8"
         xlink:href="#gpPt7"
         style="fill:currentColor;stroke:none"
         x="0"
         y="0"
         width="100%"
         height="100%" />
      <use
         transform="scale(-1,-1)"
         id="gpPt9"
         xlink:href="#gpPt7"
         style="stroke:currentColor"
         x="0"
         y="0"
         width="100%"
         height="100%" />
      <use
         id="gpPt10"
         xlink:href="#gpPt9"
         style="fill:currentColor;stroke:none"
         x="0"
         y="0"
         width="100%"
         height="100%" />
      <use
         transform="matrix(0.70710678,0.70710678,-0.70710678,0.70710678,0,0)"
         id="gpPt11"
         xlink:href="#gpPt3"
         style="stroke:currentColor"
         x="0"
         y="0"
         width="100%"
         height="100%" />
      <use
         id="gpPt12"
         xlink:href="#gpPt11"
         style="fill:currentColor;stroke:none"
         x="0"
         y="0"
         width="100%"
         height="100%" />
    </defs>
  </defs>
  <sodipodi:namedview
     pagecolor="#ffffff"
     bordercolor="#666666"
     borderopacity="1"
     objecttolerance="10"
     gridtolerance="10"
     guidetolerance="10"
     inkscape:pageopacity="0"
     inkscape:pageshadow="2"
     inkscape:window-width="1920"
     inkscape:window-height="1024"
     id="namedview715"
     showgrid="false"
     fit-margin-top="0"
     fit-margin-left="0"
     fit-margin-right="0"
     fit-margin-bottom="0"
     inkscape:zoom="1.6388889"
     inkscape:cx="271.84676"
     inkscape:cy="128.23824"
     inkscape:window-x="1920"
     inkscape:window-y="28"
     inkscape:window-maximized="0"
     inkscape:current-layer="svg2" />
  <title
     id="title4">Window function and its Fourier transform – Approximate confined Gaussian (sigma_t = 0.1N)</title>
  <desc
     id="desc6">Produced by GNUPLOT 4.6 patchlevel 3 </desc>
  <rect
     style="fill:none"
     id="rect9"
     height="288"
     width="576"
     y="-34.200001"
     x="-25.011816" />
  <g
     id="g27"
     style="color:#ffffff;fill:none;stroke:currentColor;stroke-width:1;stroke-linecap:butt;stroke-linejoin:miter"
     transform="translate(-25.011816,-34.2)" />
  <g
     id="g29"
     style="color:#000000;fill:none;stroke:currentColor;stroke-width:1;stroke-linecap:butt;stroke-linejoin:miter"
     transform="translate(-25.011816,-34.2)" />
  <g
     id="g31"
     style="color:#808080;fill:none;stroke:currentColor;stroke-width:1;stroke-linecap:butt;stroke-linejoin:miter"
     transform="translate(-25.011816,-34.2)">
    <path
       style="stroke:#808080;stroke-dasharray:2, 4"
       inkscape:connector-curvature="0"
       id="path33"
       d="m 54.1,239.1 218.8,0 0.01,0"
       class="gridline" />
  </g>
  <g
     id="g35"
     style="color:#000000;fill:none;stroke:currentColor;stroke-width:1;stroke-linecap:butt;stroke-linejoin:miter"
     transform="translate(-25.011816,-34.2)">
    <path
       style="stroke:#000000"
       inkscape:connector-curvature="0"
       id="path37"
       d="m 54.1,239.1 9.3,0 m 209.5,0 -9.3,0 0.01,0" />
    <g
       id="g39"
       style="font-size:15px;font-family:sans-serif;text-anchor:end;fill:#000000;stroke:none"
       transform="translate(47.9,243.6)">
      <text
         id="text41">
        <tspan
           id="tspan43">0</tspan>
      </text>
    </g>
  </g>
  <g
     id="g45"
     style="color:#808080;fill:none;stroke:currentColor;stroke-width:1;stroke-linecap:butt;stroke-linejoin:miter"
     transform="translate(-25.011816,-34.2)">
    <path
       style="stroke:#808080;stroke-dasharray:2, 4"
       inkscape:connector-curvature="0"
       id="path47"
       d="m 54.1,219.6 218.8,0 0.01,0"
       class="gridline" />
  </g>
  <g
     id="g49"
     style="color:#000000;fill:none;stroke:currentColor;stroke-width:1;stroke-linecap:butt;stroke-linejoin:miter"
     transform="translate(-25.011816,-34.2)">
    <path
       style="stroke:#000000"
       inkscape:connector-curvature="0"
       id="path51"
       d="m 54.1,219.6 9.3,0 m 209.5,0 -9.3,0 0.01,0" />
    <g
       id="g53"
       style="font-size:15px;font-family:sans-serif;text-anchor:end;fill:#000000;stroke:none"
       transform="translate(47.9,224.1)">
      <text
         id="text55">
        <tspan
           id="tspan57">0.1</tspan>
      </text>
    </g>
  </g>
  <g
     id="g59"
     style="color:#808080;fill:none;stroke:currentColor;stroke-width:1;stroke-linecap:butt;stroke-linejoin:miter"
     transform="translate(-25.011816,-34.2)">
    <path
       style="stroke:#808080;stroke-dasharray:2, 4"
       inkscape:connector-curvature="0"
       id="path61"
       d="m 54.1,200.2 218.8,0 0.01,0"
       class="gridline" />
  </g>
  <g
     id="g63"
     style="color:#000000;fill:none;stroke:currentColor;stroke-width:1;stroke-linecap:butt;stroke-linejoin:miter"
     transform="translate(-25.011816,-34.2)">
    <path
       style="stroke:#000000"
       inkscape:connector-curvature="0"
       id="path65"
       d="m 54.1,200.2 9.3,0 m 209.5,0 -9.3,0 0.01,0" />
    <g
       id="g67"
       style="font-size:15px;font-family:sans-serif;text-anchor:end;fill:#000000;stroke:none"
       transform="translate(47.9,204.7)">
      <text
         id="text69">
        <tspan
           id="tspan71">0.2</tspan>
      </text>
    </g>
  </g>
  <g
     id="g73"
     style="color:#808080;fill:none;stroke:currentColor;stroke-width:1;stroke-linecap:butt;stroke-linejoin:miter"
     transform="translate(-25.011816,-34.2)">
    <path
       style="stroke:#808080;stroke-dasharray:2, 4"
       inkscape:connector-curvature="0"
       id="path75"
       d="m 54.1,180.7 218.8,0 0.01,0"
       class="gridline" />
  </g>
  <g
     id="g77"
     style="color:#000000;fill:none;stroke:currentColor;stroke-width:1;stroke-linecap:butt;stroke-linejoin:miter"
     transform="translate(-25.011816,-34.2)">
    <path
       style="stroke:#000000"
       inkscape:connector-curvature="0"
       id="path79"
       d="m 54.1,180.7 9.3,0 m 209.5,0 -9.3,0 0.01,0" />
    <g
       id="g81"
       style="font-size:15px;font-family:sans-serif;text-anchor:end;fill:#000000;stroke:none"
       transform="translate(47.9,185.2)">
      <text
         id="text83">
        <tspan
           id="tspan85">0.3</tspan>
      </text>
    </g>
  </g>
  <g
     id="g87"
     style="color:#808080;fill:none;stroke:currentColor;stroke-width:1;stroke-linecap:butt;stroke-linejoin:miter"
     transform="translate(-25.011816,-34.2)">
    <path
       style="stroke:#808080;stroke-dasharray:2, 4"
       inkscape:connector-curvature="0"
       id="path89"
       d="m 54.1,161.2 218.8,0 0.01,0"
       class="gridline" />
  </g>
  <g
     id="g91"
     style="color:#000000;fill:none;stroke:currentColor;stroke-width:1;stroke-linecap:butt;stroke-linejoin:miter"
     transform="translate(-25.011816,-34.2)">
    <path
       style="stroke:#000000"
       inkscape:connector-curvature="0"
       id="path93"
       d="m 54.1,161.2 9.3,0 m 209.5,0 -9.3,0 0.01,0" />
    <g
       id="g95"
       style="font-size:15px;font-family:sans-serif;text-anchor:end;fill:#000000;stroke:none"
       transform="translate(47.9,165.7)">
      <text
         id="text97">
        <tspan
           id="tspan99">0.4</tspan>
      </text>
    </g>
  </g>
  <g
     id="g101"
     style="color:#808080;fill:none;stroke:currentColor;stroke-width:1;stroke-linecap:butt;stroke-linejoin:miter"
     transform="translate(-25.011816,-34.2)">
    <path
       style="stroke:#808080;stroke-dasharray:2, 4"
       inkscape:connector-curvature="0"
       id="path103"
       d="m 54.1,141.8 218.8,0 0.01,0"
       class="gridline" />
  </g>
  <g
     id="g105"
     style="color:#000000;fill:none;stroke:currentColor;stroke-width:1;stroke-linecap:butt;stroke-linejoin:miter"
     transform="translate(-25.011816,-34.2)">
    <path
       style="stroke:#000000"
       inkscape:connector-curvature="0"
       id="path107"
       d="m 54.1,141.8 9.3,0 m 209.5,0 -9.3,0 0.01,0" />
    <g
       id="g109"
       style="font-size:15px;font-family:sans-serif;text-anchor:end;fill:#000000;stroke:none"
       transform="translate(47.9,146.3)">
      <text
         id="text111">
        <tspan
           id="tspan113">0.5</tspan>
      </text>
    </g>
  </g>
  <g
     id="g115"
     style="color:#808080;fill:none;stroke:currentColor;stroke-width:1;stroke-linecap:butt;stroke-linejoin:miter"
     transform="translate(-25.011816,-34.2)">
    <path
       style="stroke:#808080;stroke-dasharray:2, 4"
       inkscape:connector-curvature="0"
       id="path117"
       d="m 54.1,122.3 218.8,0 0.01,0"
       class="gridline" />
  </g>
  <g
     id="g119"
     style="color:#000000;fill:none;stroke:currentColor;stroke-width:1;stroke-linecap:butt;stroke-linejoin:miter"
     transform="translate(-25.011816,-34.2)">
    <path
       style="stroke:#000000"
       inkscape:connector-curvature="0"
       id="path121"
       d="m 54.1,122.3 9.3,0 m 209.5,0 -9.3,0 0.01,0" />
    <g
       id="g123"
       style="font-size:15px;font-family:sans-serif;text-anchor:end;fill:#000000;stroke:none"
       transform="translate(47.9,126.8)">
      <text
         id="text125">
        <tspan
           id="tspan127">0.6</tspan>
      </text>
    </g>
  </g>
  <g
     id="g129"
     style="color:#808080;fill:none;stroke:currentColor;stroke-width:1;stroke-linecap:butt;stroke-linejoin:miter"
     transform="translate(-25.011816,-34.2)">
    <path
       style="stroke:#808080;stroke-dasharray:2, 4"
       inkscape:connector-curvature="0"
       id="path131"
       d="m 54.1,102.8 218.8,0 0.01,0"
       class="gridline" />
  </g>
  <g
     id="g133"
     style="color:#000000;fill:none;stroke:currentColor;stroke-width:1;stroke-linecap:butt;stroke-linejoin:miter"
     transform="translate(-25.011816,-34.2)">
    <path
       style="stroke:#000000"
       inkscape:connector-curvature="0"
       id="path135"
       d="m 54.1,102.8 9.3,0 m 209.5,0 -9.3,0 0.01,0" />
    <g
       id="g137"
       style="font-size:15px;font-family:sans-serif;text-anchor:end;fill:#000000;stroke:none"
       transform="translate(47.9,107.3)">
      <text
         id="text139">
        <tspan
           id="tspan141">0.7</tspan>
      </text>
    </g>
  </g>
  <g
     id="g143"
     style="color:#808080;fill:none;stroke:currentColor;stroke-width:1;stroke-linecap:butt;stroke-linejoin:miter"
     transform="translate(-25.011816,-34.2)">
    <path
       style="stroke:#808080;stroke-dasharray:2, 4"
       inkscape:connector-curvature="0"
       id="path145"
       d="m 54.1,83.4 218.8,0 0.01,0"
       class="gridline" />
  </g>
  <g
     id="g147"
     style="color:#000000;fill:none;stroke:currentColor;stroke-width:1;stroke-linecap:butt;stroke-linejoin:miter"
     transform="translate(-25.011816,-34.2)">
    <path
       style="stroke:#000000"
       inkscape:connector-curvature="0"
       id="path149"
       d="m 54.1,83.4 9.3,0 m 209.5,0 -9.3,0 0.01,0" />
    <g
       id="g151"
       style="font-size:15px;font-family:sans-serif;text-anchor:end;fill:#000000;stroke:none"
       transform="translate(47.9,87.9)">
      <text
         id="text153">
        <tspan
           id="tspan155">0.8</tspan>
      </text>
    </g>
  </g>
  <g
     id="g157"
     style="color:#808080;fill:none;stroke:currentColor;stroke-width:1;stroke-linecap:butt;stroke-linejoin:miter"
     transform="translate(-25.011816,-34.2)">
    <path
       style="stroke:#808080;stroke-dasharray:2, 4"
       inkscape:connector-curvature="0"
       id="path159"
       d="m 54.1,63.9 218.8,0 0.01,0"
       class="gridline" />
  </g>
  <g
     id="g161"
     style="color:#000000;fill:none;stroke:currentColor;stroke-width:1;stroke-linecap:butt;stroke-linejoin:miter"
     transform="translate(-25.011816,-34.2)">
    <path
       style="stroke:#000000"
       inkscape:connector-curvature="0"
       id="path163"
       d="m 54.1,63.9 9.3,0 m 209.5,0 -9.3,0 0.01,0" />
    <g
       id="g165"
       style="font-size:15px;font-family:sans-serif;text-anchor:end;fill:#000000;stroke:none"
       transform="translate(47.9,68.4)">
      <text
         id="text167">
        <tspan
           id="tspan169">0.9</tspan>
      </text>
    </g>
  </g>
  <g
     id="g171"
     style="color:#808080;fill:none;stroke:currentColor;stroke-width:1;stroke-linecap:butt;stroke-linejoin:miter"
     transform="translate(-25.011816,-34.2)">
    <path
       style="stroke:#808080;stroke-dasharray:2, 4"
       inkscape:connector-curvature="0"
       id="path173"
       d="m 54.1,44.4 218.8,0 0.01,0"
       class="gridline" />
  </g>
  <g
     id="g175"
     style="color:#000000;fill:none;stroke:currentColor;stroke-width:1;stroke-linecap:butt;stroke-linejoin:miter"
     transform="translate(-25.011816,-34.2)">
    <path
       style="stroke:#000000"
       inkscape:connector-curvature="0"
       id="path177"
       d="m 54.1,44.4 9.3,0 m 209.5,0 -9.3,0 0.01,0" />
    <g
       id="g179"
       style="font-size:15px;font-family:sans-serif;text-anchor:end;fill:#000000;stroke:none"
       transform="translate(47.9,48.9)">
      <text
         id="text181">
        <tspan
           id="tspan183">1</tspan>
      </text>
    </g>
  </g>
  <g
     id="g185"
     style="color:#808080;fill:none;stroke:currentColor;stroke-width:1;stroke-linecap:butt;stroke-linejoin:miter"
     transform="translate(-25.011816,-34.2)">
    <path
       style="stroke:#808080;stroke-dasharray:2, 4"
       inkscape:connector-curvature="0"
       id="path187"
       d="m 54.1,239.1 0,-204.4 0.01,0"
       class="gridline" />
  </g>
  <g
     id="g189"
     style="color:#000000;fill:none;stroke:currentColor;stroke-width:1;stroke-linecap:butt;stroke-linejoin:miter"
     transform="translate(-25.011816,-34.2)">
    <path
       style="stroke:#000000"
       inkscape:connector-curvature="0"
       id="path191"
       d="m 54.1,239.1 0,-9.3 m 0,-195.1 0,9.3 0.01,0" />
    <g
       id="g193"
       style="font-size:15px;font-family:sans-serif;text-anchor:middle;fill:#000000;stroke:none"
       transform="translate(54.1,257)">
      <text
         id="text195">
        <tspan
           id="tspan197">0</tspan>
      </text>
    </g>
  </g>
  <g
     id="g199"
     style="color:#808080;fill:none;stroke:currentColor;stroke-width:1;stroke-linecap:butt;stroke-linejoin:miter"
     transform="translate(-25.011816,-34.2)">
    <path
       style="stroke:#808080;stroke-dasharray:2, 4"
       inkscape:connector-curvature="0"
       id="path201"
       d="m 81.5,239.1 0,-204.4 0.01,0"
       class="gridline" />
  </g>
  <g
     id="g203"
     style="color:#000000;fill:none;stroke:currentColor;stroke-width:1;stroke-linecap:butt;stroke-linejoin:miter"
     transform="translate(-25.011816,-34.2)">
    <path
       style="stroke:#000000"
       inkscape:connector-curvature="0"
       id="path205"
       d="m 81.5,239.1 0,-9.3 m 0,-195.1 0,9.3 0.01,0" />
    <g
       id="g207"
       style="font-size:15px;font-family:sans-serif;text-anchor:middle;fill:#000000;stroke:none"
       transform="translate(81.5,257)">
      <text
         id="text209" />
    </g>
  </g>
  <g
     id="g211"
     style="color:#808080;fill:none;stroke:currentColor;stroke-width:1;stroke-linecap:butt;stroke-linejoin:miter"
     transform="translate(-25.011816,-34.2)">
    <path
       style="stroke:#808080;stroke-dasharray:2, 4"
       inkscape:connector-curvature="0"
       id="path213"
       d="m 108.8,239.1 0,-204.4 0.01,0"
       class="gridline" />
  </g>
  <g
     id="g215"
     style="color:#000000;fill:none;stroke:currentColor;stroke-width:1;stroke-linecap:butt;stroke-linejoin:miter"
     transform="translate(-25.011816,-34.2)">
    <path
       style="stroke:#000000"
       inkscape:connector-curvature="0"
       id="path217"
       d="m 108.8,239.1 0,-9.3 m 0,-195.1 0,9.3 0.01,0" />
    <g
       id="g219"
       style="font-size:15px;font-family:sans-serif;text-anchor:middle;fill:#000000;stroke:none"
       transform="translate(108.8,257)">
      <text
         id="text221" />
    </g>
  </g>
  <g
     id="g223"
     style="color:#808080;fill:none;stroke:currentColor;stroke-width:1;stroke-linecap:butt;stroke-linejoin:miter"
     transform="translate(-25.011816,-34.2)">
    <path
       style="stroke:#808080;stroke-dasharray:2, 4"
       inkscape:connector-curvature="0"
       id="path225"
       d="m 136.2,239.1 0,-204.4 0.01,0"
       class="gridline" />
  </g>
  <g
     id="g227"
     style="color:#000000;fill:none;stroke:currentColor;stroke-width:1;stroke-linecap:butt;stroke-linejoin:miter"
     transform="translate(-25.011816,-34.2)">
    <path
       style="stroke:#000000"
       inkscape:connector-curvature="0"
       id="path229"
       d="m 136.2,239.1 0,-9.3 m 0,-195.1 0,9.3 0.01,0" />
    <g
       id="g231"
       style="font-size:15px;font-family:sans-serif;text-anchor:middle;fill:#000000;stroke:none"
       transform="translate(136.2,257)">
      <text
         id="text233" />
    </g>
  </g>
  <g
     id="g235"
     style="color:#808080;fill:none;stroke:currentColor;stroke-width:1;stroke-linecap:butt;stroke-linejoin:miter"
     transform="translate(-25.011816,-34.2)">
    <path
       style="stroke:#808080;stroke-dasharray:2, 4"
       inkscape:connector-curvature="0"
       id="path237"
       d="m 163.5,239.1 0,-204.4 0.01,0"
       class="gridline" />
  </g>
  <g
     id="g239"
     style="color:#000000;fill:none;stroke:currentColor;stroke-width:1;stroke-linecap:butt;stroke-linejoin:miter"
     transform="translate(-25.011816,-34.2)">
    <path
       style="stroke:#000000"
       inkscape:connector-curvature="0"
       id="path241"
       d="m 163.5,239.1 0,-9.3 m 0,-195.1 0,9.3 0.01,0" />
    <g
       id="g243"
       style="font-size:15px;font-family:sans-serif;text-anchor:middle;fill:#000000;stroke:none"
       transform="translate(163.5,257)">
      <text
         id="text245" />
    </g>
  </g>
  <g
     id="g247"
     style="color:#808080;fill:none;stroke:currentColor;stroke-width:1;stroke-linecap:butt;stroke-linejoin:miter"
     transform="translate(-25.011816,-34.2)">
    <path
       style="stroke:#808080;stroke-dasharray:2, 4"
       inkscape:connector-curvature="0"
       id="path249"
       d="m 190.9,239.1 0,-204.4 0.01,0"
       class="gridline" />
  </g>
  <g
     id="g251"
     style="color:#000000;fill:none;stroke:currentColor;stroke-width:1;stroke-linecap:butt;stroke-linejoin:miter"
     transform="translate(-25.011816,-34.2)">
    <path
       style="stroke:#000000"
       inkscape:connector-curvature="0"
       id="path253"
       d="m 190.9,239.1 0,-9.3 m 0,-195.1 0,9.3 0.01,0" />
    <g
       id="g255"
       style="font-size:15px;font-family:sans-serif;text-anchor:middle;fill:#000000;stroke:none"
       transform="translate(190.9,257)">
      <text
         id="text257" />
    </g>
  </g>
  <g
     id="g259"
     style="color:#808080;fill:none;stroke:currentColor;stroke-width:1;stroke-linecap:butt;stroke-linejoin:miter"
     transform="translate(-25.011816,-34.2)">
    <path
       style="stroke:#808080;stroke-dasharray:2, 4"
       inkscape:connector-curvature="0"
       id="path261"
       d="m 218.2,239.1 0,-204.4 0.01,0"
       class="gridline" />
  </g>
  <g
     id="g263"
     style="color:#000000;fill:none;stroke:currentColor;stroke-width:1;stroke-linecap:butt;stroke-linejoin:miter"
     transform="translate(-25.011816,-34.2)">
    <path
       style="stroke:#000000"
       inkscape:connector-curvature="0"
       id="path265"
       d="m 218.2,239.1 0,-9.3 m 0,-195.1 0,9.3 0.01,0" />
    <g
       id="g267"
       style="font-size:15px;font-family:sans-serif;text-anchor:middle;fill:#000000;stroke:none"
       transform="translate(218.2,257)">
      <text
         id="text269" />
    </g>
  </g>
  <g
     id="g271"
     style="color:#808080;fill:none;stroke:currentColor;stroke-width:1;stroke-linecap:butt;stroke-linejoin:miter"
     transform="translate(-25.011816,-34.2)">
    <path
       style="stroke:#808080;stroke-dasharray:2, 4"
       inkscape:connector-curvature="0"
       id="path273"
       d="m 245.6,239.1 0,-204.4 0.01,0"
       class="gridline" />
  </g>
  <g
     id="g275"
     style="color:#000000;fill:none;stroke:currentColor;stroke-width:1;stroke-linecap:butt;stroke-linejoin:miter"
     transform="translate(-25.011816,-34.2)">
    <path
       style="stroke:#000000"
       inkscape:connector-curvature="0"
       id="path277"
       d="m 245.6,239.1 0,-9.3 m 0,-195.1 0,9.3 0.01,0" />
    <g
       id="g279"
       style="font-size:15px;font-family:sans-serif;text-anchor:middle;fill:#000000;stroke:none"
       transform="translate(245.6,257)">
      <text
         id="text281" />
    </g>
  </g>
  <g
     id="g283"
     style="color:#808080;fill:none;stroke:currentColor;stroke-width:1;stroke-linecap:butt;stroke-linejoin:miter"
     transform="translate(-25.011816,-34.2)">
    <path
       style="stroke:#808080;stroke-dasharray:2, 4"
       inkscape:connector-curvature="0"
       id="path285"
       d="m 272.9,239.1 0,-204.4 0.01,0"
       class="gridline" />
  </g>
  <path
     d="m 247.88818,204.9 0,-9.3 m 0,-195.1 0,9.3 0.01,0"
     id="path289"
     inkscape:connector-curvature="0"
     style="color:#000000;fill:none;stroke:#000000;stroke-width:1;stroke-linecap:butt;stroke-linejoin:miter" />
  <g
     transform="translate(247.88818,222.8)"
     style="color:#000000;font-size:15px;font-family:sans-serif;text-anchor:middle;fill:#000000;stroke:none;stroke-width:1;stroke-linecap:butt;stroke-linejoin:miter"
     id="g291">
    <text
       id="text293">
      <tspan
         id="tspan295">N-1</tspan>
    </text>
  </g>
  <path
     d="m 29.088184,0.5 0,204.4 218.799996,0 0,-204.4 -218.799996,0 z m 0,0 0.01,0"
     id="path297"
     inkscape:connector-curvature="0"
     style="color:#000000;fill:none;stroke:#000000;stroke-width:1;stroke-linecap:butt;stroke-linejoin:miter" />
  <g
     id="gnuplot_plot_1a"
     transform="translate(-25.011816,-34.2)">
    <title
       id="title316">gnuplot_plot_1a</title>
    <g
       id="g318"
       style="color:#ff0000;fill:none;stroke:currentColor;stroke-width:1;stroke-linecap:butt;stroke-linejoin:miter">
      <g
         id="g320"
         style="stroke:none;shape-rendering:crispEdges">
        <polygon
           style="fill:#006699"
           id="polygon322"
           points="55.4,239 55.8,239 56.2,238.9 56.7,238.9 57.1,238.8 57.5,238.8 57.9,238.8 58.4,238.7 58.8,238.7 59.2,238.6 59.7,238.6 60.1,238.6 60.5,238.5 60.9,238.5 61.4,238.4 61.8,238.4 62.2,238.3 62.6,238.3 63.1,238.2 63.5,238.2 63.9,238.1 64.4,238.1 64.8,238 65.2,237.9 65.6,237.9 66.1,237.8 66.5,237.8 66.9,237.7 67.3,237.6 67.8,237.5 68.2,237.5 68.6,237.4 69.1,237.3 69.5,237.2 69.9,237.1 70.3,237.1 70.8,237 71.2,236.9 71.6,236.8 72,236.7 72.5,236.6 72.9,236.5 73.3,236.3 73.8,236.2 74.2,236.1 74.6,236 75,235.9 75.5,235.7 75.9,235.6 76.3,235.4 76.7,235.3 77.2,235.1 77.6,235 78,234.8 78.5,234.7 78.9,234.5 79.3,234.3 79.7,234.1 80.2,233.9 80.6,233.7 81,233.5 81.5,233.3 81.9,233.1 82.3,232.9 82.7,232.7 83.2,232.4 83.6,232.2 84,231.9 84.4,231.7 84.9,231.4 85.3,231.1 85.7,230.8 86.2,230.5 86.6,230.2 87,229.9 87.4,229.6 87.9,229.3 88.3,229 88.7,228.6 89.1,228.3 89.6,227.9 90,227.5 90.4,227.1 90.9,226.7 91.3,226.3 91.7,225.9 92.1,225.5 92.6,225 93,224.6 93.4,224.1 93.8,223.7 94.3,223.2 94.7,222.7 95.1,222.2 95.6,221.6 96,221.1 96.4,220.5 96.8,220 97.3,219.4 97.7,218.8 98.1,218.2 98.5,217.6 99,217 99.4,216.3 99.8,215.7 100.3,215 100.7,214.3 101.1,213.6 101.5,212.9 102,212.2 102.4,211.4 102.8,210.6 103.2,209.9 103.7,209.1 104.1,208.3 104.5,207.4 105,206.6 105.4,205.7 105.8,204.9 106.2,204 106.7,203.1 107.1,202.1 107.5,201.2 107.9,200.3 108.4,199.3 108.8,198.3 109.2,197.3 109.7,196.3 110.1,195.2 110.5,194.2 110.9,193.1 111.4,192 111.8,190.9 112.2,189.8 112.6,188.7 113.1,187.5 113.5,186.3 113.9,185.2 114.4,183.9 114.8,182.7 115.2,181.5 115.6,180.2 116.1,179 116.5,177.7 116.9,176.4 117.3,175.1 117.8,173.8 118.2,172.4 118.6,171.1 119.1,169.7 119.5,168.3 119.9,166.9 120.3,165.5 120.8,164.1 121.2,162.7 121.6,161.2 122,159.7 122.5,158.3 122.9,156.8 123.3,155.3 123.8,153.8 124.2,152.3 124.6,150.7 125,149.2 125.5,147.6 125.9,146.1 126.3,144.5 126.7,142.9 127.2,141.4 127.6,139.8 128,138.2 128.5,136.6 128.9,135 129.3,133.4 129.7,131.7 130.2,130.1 130.6,128.5 131,126.9 131.4,125.3 131.9,123.6 132.3,122 132.7,120.4 133.2,118.7 133.6,117.1 134,115.5 134.4,113.8 134.9,112.2 135.3,110.6 135.7,109 136.2,107.4 136.6,105.8 137,104.2 137.4,102.6 137.9,101 138.3,99.4 138.7,97.9 139.1,96.3 139.6,94.8 140,93.2 140.4,91.7 140.9,90.2 141.3,88.7 141.7,87.2 142.1,85.7 142.6,84.3 143,82.8 143.4,81.4 143.8,80 144.3,78.6 144.7,77.3 145.1,75.9 145.6,74.6 146,73.3 146.4,72 146.8,70.7 147.3,69.5 147.7,68.3 148.1,67.1 148.5,65.9 149,64.8 149.4,63.6 149.8,62.5 150.3,61.5 150.7,60.4 151.1,59.4 151.5,58.5 152,57.5 152.4,56.6 152.8,55.7 153.2,54.8 153.7,54 154.1,53.2 154.5,52.5 155,51.7 155.4,51 155.8,50.4 156.2,49.7 156.7,49.1 157.1,48.6 157.5,48 157.9,47.5 158.4,47.1 158.8,46.7 159.2,46.3 159.7,45.9 160.1,45.6 160.5,45.3 160.9,45.1 161.4,44.9 161.8,44.7 162.2,44.6 162.6,44.5 163.1,44.5 163.5,44.4 163.9,44.5 164.4,44.5 164.8,44.6 165.2,44.7 165.6,44.9 166.1,45.1 166.5,45.3 166.9,45.6 167.3,45.9 167.8,46.3 168.2,46.7 168.6,47.1 169.1,47.5 169.5,48 169.9,48.6 170.3,49.1 170.8,49.7 171.2,50.4 171.6,51 172,51.7 172.5,52.5 172.9,53.2 173.3,54 173.8,54.8 174.2,55.7 174.6,56.6 175,57.5 175.5,58.5 175.9,59.4 176.3,60.4 176.7,61.5 177.2,62.5 177.6,63.6 178,64.8 178.5,65.9 178.9,67.1 179.3,68.3 179.7,69.5 180.2,70.7 180.6,72 181,73.3 181.4,74.6 181.9,75.9 182.3,77.3 182.7,78.6 183.2,80 183.6,81.4 184,82.8 184.4,84.3 184.9,85.7 185.3,87.2 185.7,88.7 186.1,90.2 186.6,91.7 187,93.2 187.4,94.8 187.9,96.3 188.3,97.9 188.7,99.4 189.1,101 189.6,102.6 190,104.2 190.4,105.8 190.9,107.4 191.3,109 191.7,110.6 192.1,112.2 192.6,113.8 193,115.5 193.4,117.1 193.8,118.7 194.3,120.4 194.7,122 195.1,123.6 195.6,125.3 196,126.9 196.4,128.5 196.8,130.1 197.3,131.7 197.7,133.4 198.1,135 198.5,136.6 199,138.2 199.4,139.8 199.8,141.4 200.3,142.9 200.7,144.5 201.1,146.1 201.5,147.6 202,149.2 202.4,150.7 202.8,152.3 203.2,153.8 203.7,155.3 204.1,156.8 204.5,158.3 205,159.7 205.4,161.2 205.8,162.7 206.2,164.1 206.7,165.5 207.1,166.9 207.5,168.3 207.9,169.7 208.4,171.1 208.8,172.4 209.2,173.8 209.7,175.1 210.1,176.4 210.5,177.7 210.9,179 211.4,180.2 211.8,181.5 212.2,182.7 212.6,183.9 213.1,185.2 213.5,186.3 213.9,187.5 214.4,188.7 214.8,189.8 215.2,190.9 215.6,192 216.1,193.1 216.5,194.2 216.9,195.2 217.3,196.3 217.8,197.3 218.2,198.3 218.6,199.3 219.1,200.3 219.5,201.2 219.9,202.1 220.3,203.1 220.8,204 221.2,204.9 221.6,205.7 222,206.6 222.5,207.4 222.9,208.3 223.3,209.1 223.8,209.9 224.2,210.6 224.6,211.4 225,212.2 225.5,212.9 225.9,213.6 226.3,214.3 226.7,215 227.2,215.7 227.6,216.3 228,217 228.5,217.6 228.9,218.2 229.3,218.8 229.7,219.4 230.2,220 230.6,220.5 231,221.1 231.4,221.6 231.9,222.2 232.3,222.7 232.7,223.2 233.2,223.7 233.6,224.1 234,224.6 234.4,225 234.9,225.5 235.3,225.9 235.7,226.3 236.1,226.7 236.6,227.1 237,227.5 237.4,227.9 237.9,228.3 238.3,228.6 238.7,229 239.1,229.3 239.6,229.6 240,229.9 240.4,230.2 240.8,230.5 241.3,230.8 241.7,231.1 242.1,231.4 242.6,231.7 243,231.9 243.4,232.2 243.8,232.4 244.3,232.7 244.7,232.9 245.1,233.1 245.6,233.3 246,233.5 246.4,233.7 246.8,233.9 247.3,234.1 247.7,234.3 248.1,234.5 248.5,234.7 249,234.8 249.4,235 249.8,235.1 250.3,235.3 250.7,235.4 251.1,235.6 251.5,235.7 252,235.9 252.4,236 252.8,236.1 253.2,236.2 253.7,236.3 254.1,236.5 254.5,236.6 255,236.7 255.4,236.8 255.8,236.9 256.2,237 256.7,237.1 257.1,237.1 257.5,237.2 257.9,237.3 258.4,237.4 258.8,237.5 259.2,237.5 259.7,237.6 260.1,237.7 260.5,237.8 260.9,237.8 261.4,237.9 261.8,237.9 262.2,238 262.6,238.1 263.1,238.1 263.5,238.2 263.9,238.2 264.4,238.3 264.8,238.3 265.2,238.4 265.6,238.4 266.1,238.5 266.5,238.5 266.9,238.6 267.3,238.6 267.8,238.6 268.2,238.7 268.6,238.7 269.1,238.8 269.5,238.8 269.9,238.8 270.3,238.9 270.8,238.9 271.2,239 271.6,239 272,239 272.5,239.1 272.9,239.1 272.9,239.1 272.5,239.1 272,239.1 271.6,239.1 271.2,239.1 270.8,239.1 270.3,239.1 269.9,239.1 269.5,239.1 269.1,239.1 268.6,239.1 268.2,239.1 267.8,239.1 267.3,239.1 266.9,239.1 266.5,239.1 266.1,239.1 265.6,239.1 265.2,239.1 264.8,239.1 264.4,239.1 263.9,239.1 263.5,239.1 263.1,239.1 262.6,239.1 262.2,239.1 261.8,239.1 261.4,239.1 260.9,239.1 260.5,239.1 260.1,239.1 259.7,239.1 259.2,239.1 258.8,239.1 258.4,239.1 257.9,239.1 257.5,239.1 257.1,239.1 256.7,239.1 256.2,239.1 255.8,239.1 255.4,239.1 255,239.1 254.5,239.1 254.1,239.1 253.7,239.1 253.2,239.1 252.8,239.1 252.4,239.1 252,239.1 251.5,239.1 251.1,239.1 250.7,239.1 250.3,239.1 249.8,239.1 249.4,239.1 249,239.1 248.5,239.1 248.1,239.1 247.7,239.1 247.3,239.1 246.8,239.1 246.4,239.1 246,239.1 245.6,239.1 245.1,239.1 244.7,239.1 244.3,239.1 243.8,239.1 243.4,239.1 243,239.1 242.6,239.1 242.1,239.1 241.7,239.1 241.3,239.1 240.8,239.1 240.4,239.1 240,239.1 239.6,239.1 239.1,239.1 238.7,239.1 238.3,239.1 237.9,239.1 237.4,239.1 237,239.1 236.6,239.1 236.1,239.1 235.7,239.1 235.3,239.1 234.9,239.1 234.4,239.1 234,239.1 233.6,239.1 233.2,239.1 232.7,239.1 232.3,239.1 231.9,239.1 231.4,239.1 231,239.1 230.6,239.1 230.2,239.1 229.7,239.1 229.3,239.1 228.9,239.1 228.5,239.1 228,239.1 227.6,239.1 227.2,239.1 226.7,239.1 226.3,239.1 225.9,239.1 225.5,239.1 225,239.1 224.6,239.1 224.2,239.1 223.8,239.1 223.3,239.1 222.9,239.1 222.5,239.1 222,239.1 221.6,239.1 221.2,239.1 220.8,239.1 220.3,239.1 219.9,239.1 219.5,239.1 219.1,239.1 218.6,239.1 218.2,239.1 217.8,239.1 217.3,239.1 216.9,239.1 216.5,239.1 216.1,239.1 215.6,239.1 215.2,239.1 214.8,239.1 214.4,239.1 213.9,239.1 213.5,239.1 213.1,239.1 212.6,239.1 212.2,239.1 211.8,239.1 211.4,239.1 210.9,239.1 210.5,239.1 210.1,239.1 209.7,239.1 209.2,239.1 208.8,239.1 208.4,239.1 207.9,239.1 207.5,239.1 207.1,239.1 206.7,239.1 206.2,239.1 205.8,239.1 205.4,239.1 205,239.1 204.5,239.1 204.1,239.1 203.7,239.1 203.2,239.1 202.8,239.1 202.4,239.1 202,239.1 201.5,239.1 201.1,239.1 200.7,239.1 200.3,239.1 199.8,239.1 199.4,239.1 199,239.1 198.5,239.1 198.1,239.1 197.7,239.1 197.3,239.1 196.8,239.1 196.4,239.1 196,239.1 195.6,239.1 195.1,239.1 194.7,239.1 194.3,239.1 193.8,239.1 193.4,239.1 193,239.1 192.6,239.1 192.1,239.1 191.7,239.1 191.3,239.1 190.9,239.1 190.4,239.1 190,239.1 189.6,239.1 189.1,239.1 188.7,239.1 188.3,239.1 187.9,239.1 187.4,239.1 187,239.1 186.6,239.1 186.1,239.1 185.7,239.1 185.3,239.1 184.9,239.1 184.4,239.1 184,239.1 183.6,239.1 183.2,239.1 182.7,239.1 182.3,239.1 181.9,239.1 181.4,239.1 181,239.1 180.6,239.1 180.2,239.1 179.7,239.1 179.3,239.1 178.9,239.1 178.5,239.1 178,239.1 177.6,239.1 177.2,239.1 176.7,239.1 176.3,239.1 175.9,239.1 175.5,239.1 175,239.1 174.6,239.1 174.2,239.1 173.8,239.1 173.3,239.1 172.9,239.1 172.5,239.1 172,239.1 171.6,239.1 171.2,239.1 170.8,239.1 170.3,239.1 169.9,239.1 169.5,239.1 169.1,239.1 168.6,239.1 168.2,239.1 167.8,239.1 167.3,239.1 166.9,239.1 166.5,239.1 166.1,239.1 165.6,239.1 165.2,239.1 164.8,239.1 164.4,239.1 163.9,239.1 163.5,239.1 163.1,239.1 162.6,239.1 162.2,239.1 161.8,239.1 161.4,239.1 160.9,239.1 160.5,239.1 160.1,239.1 159.7,239.1 159.2,239.1 158.8,239.1 158.4,239.1 157.9,239.1 157.5,239.1 157.1,239.1 156.7,239.1 156.2,239.1 155.8,239.1 155.4,239.1 155,239.1 154.5,239.1 154.1,239.1 153.7,239.1 153.2,239.1 152.8,239.1 152.4,239.1 152,239.1 151.5,239.1 151.1,239.1 150.7,239.1 150.3,239.1 149.8,239.1 149.4,239.1 149,239.1 148.5,239.1 148.1,239.1 147.7,239.1 147.3,239.1 146.8,239.1 146.4,239.1 146,239.1 145.6,239.1 145.1,239.1 144.7,239.1 144.3,239.1 143.8,239.1 143.4,239.1 143,239.1 142.6,239.1 142.1,239.1 141.7,239.1 141.3,239.1 140.9,239.1 140.4,239.1 140,239.1 139.6,239.1 139.1,239.1 138.7,239.1 138.3,239.1 137.9,239.1 137.4,239.1 137,239.1 136.6,239.1 136.2,239.1 135.7,239.1 135.3,239.1 134.9,239.1 134.4,239.1 134,239.1 133.6,239.1 133.2,239.1 132.7,239.1 132.3,239.1 131.9,239.1 131.4,239.1 131,239.1 130.6,239.1 130.2,239.1 129.7,239.1 129.3,239.1 128.9,239.1 128.5,239.1 128,239.1 127.6,239.1 127.2,239.1 126.7,239.1 126.3,239.1 125.9,239.1 125.5,239.1 125,239.1 124.6,239.1 124.2,239.1 123.8,239.1 123.3,239.1 122.9,239.1 122.5,239.1 122,239.1 121.6,239.1 121.2,239.1 120.8,239.1 120.3,239.1 119.9,239.1 119.5,239.1 119.1,239.1 118.6,239.1 118.2,239.1 117.8,239.1 117.3,239.1 116.9,239.1 116.5,239.1 116.1,239.1 115.6,239.1 115.2,239.1 114.8,239.1 114.4,239.1 113.9,239.1 113.5,239.1 113.1,239.1 112.6,239.1 112.2,239.1 111.8,239.1 111.4,239.1 110.9,239.1 110.5,239.1 110.1,239.1 109.7,239.1 109.2,239.1 108.8,239.1 108.4,239.1 107.9,239.1 107.5,239.1 107.1,239.1 106.7,239.1 106.2,239.1 105.8,239.1 105.4,239.1 105,239.1 104.5,239.1 104.1,239.1 103.7,239.1 103.2,239.1 102.8,239.1 102.4,239.1 102,239.1 101.5,239.1 101.1,239.1 100.7,239.1 100.3,239.1 99.8,239.1 99.4,239.1 99,239.1 98.5,239.1 98.1,239.1 97.7,239.1 97.3,239.1 96.8,239.1 96.4,239.1 96,239.1 95.6,239.1 95.1,239.1 94.7,239.1 94.3,239.1 93.8,239.1 93.4,239.1 93,239.1 92.6,239.1 92.1,239.1 91.7,239.1 91.3,239.1 90.9,239.1 90.4,239.1 90,239.1 89.6,239.1 89.1,239.1 88.7,239.1 88.3,239.1 87.9,239.1 87.4,239.1 87,239.1 86.6,239.1 86.2,239.1 85.7,239.1 85.3,239.1 84.9,239.1 84.4,239.1 84,239.1 83.6,239.1 83.2,239.1 82.7,239.1 82.3,239.1 81.9,239.1 81.5,239.1 81,239.1 80.6,239.1 80.2,239.1 79.7,239.1 79.3,239.1 78.9,239.1 78.5,239.1 78,239.1 77.6,239.1 77.2,239.1 76.7,239.1 76.3,239.1 75.9,239.1 75.5,239.1 75,239.1 74.6,239.1 74.2,239.1 73.8,239.1 73.3,239.1 72.9,239.1 72.5,239.1 72,239.1 71.6,239.1 71.2,239.1 70.8,239.1 70.3,239.1 69.9,239.1 69.5,239.1 69.1,239.1 68.6,239.1 68.2,239.1 67.8,239.1 67.3,239.1 66.9,239.1 66.5,239.1 66.1,239.1 65.6,239.1 65.2,239.1 64.8,239.1 64.4,239.1 63.9,239.1 63.5,239.1 63.1,239.1 62.6,239.1 62.2,239.1 61.8,239.1 61.4,239.1 60.9,239.1 60.5,239.1 60.1,239.1 59.7,239.1 59.2,239.1 58.8,239.1 58.4,239.1 57.9,239.1 57.5,239.1 57.1,239.1 56.7,239.1 56.2,239.1 55.8,239.1 55.4,239.1 55,239.1 54.5,239.1 54.1,239.1 54.1,239.1 54.1,239.1 54.1,239.1 54.5,239.1 55,239 " />
      </g>
      <path
         style="stroke:#006699"
         inkscape:connector-curvature="0"
         id="path324"
         d="m 54.1,239.1 0.4,0 0.5,-0.1 0.4,0 0.4,0 0.4,-0.1 0.5,0 0.4,-0.1 0.4,0 0.4,0 0.5,-0.1 0.4,0 0.4,-0.1 0.5,0 0.4,0 0.4,-0.1 0.4,0 0.5,-0.1 0.4,0 0.4,-0.1 0.4,0 0.5,-0.1 0.4,0 0.4,-0.1 0.5,0 0.4,-0.1 0.4,-0.1 0.4,0 0.5,-0.1 0.4,0 0.4,-0.1 0.4,-0.1 0.5,-0.1 0.4,0 0.4,-0.1 0.5,-0.1 0.4,-0.1 0.4,-0.1 0.4,0 0.5,-0.1 0.4,-0.1 0.4,-0.1 0.4,-0.1 0.5,-0.1 0.4,-0.1 0.4,-0.2 0.5,-0.1 0.4,-0.1 0.4,-0.1 0.4,-0.1 0.5,-0.2 0.4,-0.1 0.4,-0.2 0.4,-0.1 0.5,-0.2 0.4,-0.1 0.4,-0.2 0.5,-0.1 0.4,-0.2 0.4,-0.2 0.4,-0.2 0.5,-0.2 0.4,-0.2 0.4,-0.2 0.5,-0.2 0.4,-0.2 0.4,-0.2 0.4,-0.2 0.5,-0.3 0.4,-0.2 0.4,-0.3 0.4,-0.2 0.5,-0.3 0.4,-0.3 0.4,-0.3 0.5,-0.3 0.4,-0.3 0.4,-0.3 0.4,-0.3 0.5,-0.3 0.4,-0.3 0.4,-0.4 0.4,-0.3 0.5,-0.4 0.4,-0.4 0.4,-0.4 0.5,-0.4 0.4,-0.4 0.4,-0.4 0.4,-0.4 0.5,-0.5 0.4,-0.4 0.4,-0.5 0.4,-0.4 0.5,-0.5 0.4,-0.5 0.4,-0.5 0.5,-0.6 0.4,-0.5 0.4,-0.6 0.4,-0.5 0.5,-0.6 0.4,-0.6 0.4,-0.6 0.4,-0.6 0.5,-0.6 0.4,-0.7 0.4,-0.6 0.5,-0.7 0.4,-0.7 0.4,-0.7 0.4,-0.7 0.5,-0.7 0.4,-0.8 0.4,-0.8 0.4,-0.7 0.5,-0.8 0.4,-0.8 0.4,-0.9 0.5,-0.8 0.4,-0.9 0.4,-0.8 0.4,-0.9 0.5,-0.9 0.4,-1 0.4,-0.9 0.4,-0.9 0.5,-1 0.4,-1 0.4,-1 0.5,-1 0.4,-1.1 0.4,-1 0.4,-1.1 0.5,-1.1 0.4,-1.1 0.4,-1.1 0.4,-1.1 0.5,-1.2 0.4,-1.2 0.4,-1.1 0.5,-1.3 0.4,-1.2 0.4,-1.2 0.4,-1.3 0.5,-1.2 0.4,-1.3 0.4,-1.3 0.4,-1.3 0.5,-1.3 0.4,-1.4 0.4,-1.3 0.5,-1.4 0.4,-1.4 0.4,-1.4 0.4,-1.4 0.5,-1.4 0.4,-1.4 0.4,-1.5 0.4,-1.5 0.5,-1.4 0.4,-1.5 0.4,-1.5 0.5,-1.5 0.4,-1.5 0.4,-1.6 0.4,-1.5 0.5,-1.6 0.4,-1.5 0.4,-1.6 0.4,-1.6 0.5,-1.5 0.4,-1.6 0.4,-1.6 0.5,-1.6 0.4,-1.6 0.4,-1.6 0.4,-1.7 0.5,-1.6 0.4,-1.6 0.4,-1.6 0.4,-1.6 0.5,-1.7 0.4,-1.6 0.4,-1.6 0.5,-1.7 0.4,-1.6 0.4,-1.6 0.4,-1.7 0.5,-1.6 0.4,-1.6 0.4,-1.6 0.5,-1.6 0.4,-1.6 0.4,-1.6 0.4,-1.6 0.5,-1.6 0.4,-1.6 0.4,-1.5 0.4,-1.6 0.5,-1.5 0.4,-1.6 0.4,-1.5 0.5,-1.5 0.4,-1.5 0.4,-1.5 0.4,-1.5 0.5,-1.4 0.4,-1.5 0.4,-1.4 0.4,-1.4 0.5,-1.4 0.4,-1.3 0.4,-1.4 0.5,-1.3 0.4,-1.3 0.4,-1.3 0.4,-1.3 0.5,-1.2 0.4,-1.2 0.4,-1.2 0.4,-1.2 0.5,-1.1 0.4,-1.2 0.4,-1.1 0.5,-1 0.4,-1.1 0.4,-1 0.4,-0.9 0.5,-1 0.4,-0.9 0.4,-0.9 0.4,-0.9 0.5,-0.8 0.4,-0.8 0.4,-0.7 0.5,-0.8 0.4,-0.7 0.4,-0.6 0.4,-0.7 0.5,-0.6 0.4,-0.5 0.4,-0.6 0.4,-0.5 0.5,-0.4 0.4,-0.4 0.4,-0.4 0.5,-0.4 0.4,-0.3 0.4,-0.3 0.4,-0.2 0.5,-0.2 0.4,-0.2 0.4,-0.1 0.4,-0.1 0.5,0 0.4,-0.1 0.4,0.1 0.5,0 0.4,0.1 0.4,0.1 0.4,0.2 0.5,0.2 0.4,0.2 0.4,0.3 0.4,0.3 0.5,0.4 0.4,0.4 0.4,0.4 0.5,0.4 0.4,0.5 0.4,0.6 0.4,0.5 0.5,0.6 0.4,0.7 0.4,0.6 0.4,0.7 0.5,0.8 0.4,0.7 0.4,0.8 0.5,0.8 0.4,0.9 0.4,0.9 0.4,0.9 0.5,1 0.4,0.9 0.4,1 0.4,1.1 0.5,1 0.4,1.1 0.4,1.2 0.5,1.1 0.4,1.2 0.4,1.2 0.4,1.2 0.5,1.2 0.4,1.3 0.4,1.3 0.4,1.3 0.5,1.3 0.4,1.4 0.4,1.3 0.5,1.4 0.4,1.4 0.4,1.4 0.4,1.5 0.5,1.4 0.4,1.5 0.4,1.5 0.4,1.5 0.5,1.5 0.4,1.5 0.4,1.6 0.5,1.5 0.4,1.6 0.4,1.5 0.4,1.6 0.5,1.6 0.4,1.6 0.4,1.6 0.5,1.6 0.4,1.6 0.4,1.6 0.4,1.6 0.5,1.6 0.4,1.7 0.4,1.6 0.4,1.6 0.5,1.7 0.4,1.6 0.4,1.6 0.5,1.7 0.4,1.6 0.4,1.6 0.4,1.6 0.5,1.6 0.4,1.7 0.4,1.6 0.4,1.6 0.5,1.6 0.4,1.6 0.4,1.6 0.5,1.5 0.4,1.6 0.4,1.6 0.4,1.5 0.5,1.6 0.4,1.5 0.4,1.6 0.4,1.5 0.5,1.5 0.4,1.5 0.4,1.5 0.5,1.4 0.4,1.5 0.4,1.5 0.4,1.4 0.5,1.4 0.4,1.4 0.4,1.4 0.4,1.4 0.5,1.4 0.4,1.3 0.4,1.4 0.5,1.3 0.4,1.3 0.4,1.3 0.4,1.3 0.5,1.2 0.4,1.3 0.4,1.2 0.4,1.2 0.5,1.3 0.4,1.1 0.4,1.2 0.5,1.2 0.4,1.1 0.4,1.1 0.4,1.1 0.5,1.1 0.4,1.1 0.4,1 0.4,1.1 0.5,1 0.4,1 0.4,1 0.5,1 0.4,0.9 0.4,0.9 0.4,1 0.5,0.9 0.4,0.9 0.4,0.8 0.4,0.9 0.5,0.8 0.4,0.9 0.4,0.8 0.5,0.8 0.4,0.7 0.4,0.8 0.4,0.8 0.5,0.7 0.4,0.7 0.4,0.7 0.4,0.7 0.5,0.7 0.4,0.6 0.4,0.7 0.5,0.6 0.4,0.6 0.4,0.6 0.4,0.6 0.5,0.6 0.4,0.5 0.4,0.6 0.4,0.5 0.5,0.6 0.4,0.5 0.4,0.5 0.5,0.5 0.4,0.4 0.4,0.5 0.4,0.4 0.5,0.5 0.4,0.4 0.4,0.4 0.4,0.4 0.5,0.4 0.4,0.4 0.4,0.4 0.5,0.4 0.4,0.3 0.4,0.4 0.4,0.3 0.5,0.3 0.4,0.3 0.4,0.3 0.4,0.3 0.5,0.3 0.4,0.3 0.4,0.3 0.5,0.3 0.4,0.2 0.4,0.3 0.4,0.2 0.5,0.3 0.4,0.2 0.4,0.2 0.5,0.2 0.4,0.2 0.4,0.2 0.4,0.2 0.5,0.2 0.4,0.2 0.4,0.2 0.4,0.2 0.5,0.1 0.4,0.2 0.4,0.1 0.5,0.2 0.4,0.1 0.4,0.2 0.4,0.1 0.5,0.2 0.4,0.1 0.4,0.1 0.4,0.1 0.5,0.1 0.4,0.2 0.4,0.1 0.5,0.1 0.4,0.1 0.4,0.1 0.4,0.1 0.5,0.1 0.4,0 0.4,0.1 0.4,0.1 0.5,0.1 0.4,0.1 0.4,0 0.5,0.1 0.4,0.1 0.4,0.1 0.4,0 0.5,0.1 0.4,0 0.4,0.1 0.4,0.1 0.5,0 0.4,0.1 0.4,0 0.5,0.1 0.4,0 0.4,0.1 0.4,0 0.5,0.1 0.4,0 0.4,0.1 0.4,0 0.5,0 0.4,0.1 0.4,0 0.5,0.1 0.4,0 0.4,0 0.4,0.1 0.5,0 0.4,0.1 0.4,0 0.4,0 0.5,0.1 0.4,0 -0.4,0 -0.5,0 -0.4,0 -0.4,0 -0.4,0 -0.5,0 -0.4,0 -0.4,0 -0.4,0 -0.5,0 -0.4,0 -0.4,0 -0.5,0 -0.4,0 -0.4,0 -0.4,0 -0.5,0 -0.4,0 -0.4,0 -0.4,0 -0.5,0 -0.4,0 -0.4,0 -0.5,0 -0.4,0 -0.4,0 -0.4,0 -0.5,0 -0.4,0 -0.4,0 -0.4,0 -0.5,0 -0.4,0 -0.4,0 -0.5,0 -0.4,0 -0.4,0 -0.4,0 -0.5,0 -0.4,0 -0.4,0 -0.4,0 -0.5,0 -0.4,0 -0.4,0 -0.5,0 -0.4,0 -0.4,0 -0.4,0 -0.5,0 -0.4,0 -0.4,0 -0.4,0 -0.5,0 -0.4,0 -0.4,0 -0.5,0 -0.4,0 -0.4,0 -0.4,0 -0.5,0 -0.4,0 -0.4,0 -0.4,0 -0.5,0 -0.4,0 -0.4,0 -0.5,0 -0.4,0 -0.4,0 -0.4,0 -0.5,0 -0.4,0 -0.4,0 -0.5,0 -0.4,0 -0.4,0 -0.4,0 -0.5,0 -0.4,0 -0.4,0 -0.4,0 -0.5,0 -0.4,0 -0.4,0 -0.5,0 -0.4,0 -0.4,0 -0.4,0 -0.5,0 -0.4,0 -0.4,0 -0.4,0 -0.5,0 -0.4,0 -0.4,0 -0.5,0 -0.4,0 -0.4,0 -0.4,0 -0.5,0 -0.4,0 -0.4,0 -0.4,0 -0.5,0 -0.4,0 -0.4,0 -0.5,0 -0.4,0 -0.4,0 -0.4,0 -0.5,0 -0.4,0 -0.4,0 -0.4,0 -0.5,0 -0.4,0 -0.4,0 -0.5,0 -0.4,0 -0.4,0 -0.4,0 -0.5,0 -0.4,0 -0.4,0 -0.4,0 -0.5,0 -0.4,0 -0.4,0 -0.5,0 -0.4,0 -0.4,0 -0.4,0 -0.5,0 -0.4,0 -0.4,0 -0.4,0 -0.5,0 -0.4,0 -0.4,0 -0.5,0 -0.4,0 -0.4,0 -0.4,0 -0.5,0 -0.4,0 -0.4,0 -0.4,0 -0.5,0 -0.4,0 -0.4,0 -0.5,0 -0.4,0 -0.4,0 -0.4,0 -0.5,0 -0.4,0 -0.4,0 -0.4,0 -0.5,0 -0.4,0 -0.4,0 -0.5,0 -0.4,0 -0.4,0 -0.4,0 -0.5,0 -0.4,0 -0.4,0 -0.4,0 -0.5,0 -0.4,0 -0.4,0 -0.5,0 -0.4,0 -0.4,0 -0.4,0 -0.5,0 -0.4,0 -0.4,0 -0.4,0 -0.5,0 -0.4,0 -0.4,0 -0.5,0 -0.4,0 -0.4,0 -0.4,0 -0.5,0 -0.4,0 -0.4,0 -0.4,0 -0.5,0 -0.4,0 -0.4,0 -0.5,0 -0.4,0 -0.4,0 -0.4,0 -0.5,0 -0.4,0 -0.4,0 -0.5,0 -0.4,0 -0.4,0 -0.4,0 -0.5,0 -0.4,0 -0.4,0 -0.4,0 -0.5,0 -0.4,0 -0.4,0 -0.5,0 -0.4,0 -0.4,0 -0.4,0 -0.5,0 -0.4,0 -0.4,0 -0.4,0 -0.5,0 -0.4,0 -0.4,0 -0.5,0 -0.4,0 -0.4,0 -0.4,0 -0.5,0 -0.4,0 -0.4,0 -0.4,0 -0.5,0 -0.4,0 -0.4,0 -0.5,0 -0.4,0 -0.4,0 -0.4,0 -0.5,0 -0.4,0 -0.4,0 -0.4,0 -0.5,0 -0.4,0 -0.4,0 -0.5,0 -0.4,0 -0.4,0 -0.4,0 -0.5,0 -0.4,0 -0.4,0 -0.4,0 -0.5,0 -0.4,0 -0.4,0 -0.5,0 -0.4,0 -0.4,0 -0.4,0 -0.5,0 -0.4,0 -0.4,0 -0.4,0 -0.5,0 -0.4,0 -0.4,0 -0.5,0 -0.4,0 -0.4,0 -0.4,0 -0.5,0 -0.4,0 -0.4,0 -0.4,0 -0.5,0 -0.4,0 -0.4,0 -0.5,0 -0.4,0 -0.4,0 -0.4,0 -0.5,0 -0.4,0 -0.4,0 -0.4,0 -0.5,0 -0.4,0 -0.4,0 -0.5,0 -0.4,0 -0.4,0 -0.4,0 -0.5,0 -0.4,0 -0.4,0 -0.4,0 -0.5,0 -0.4,0 -0.4,0 -0.5,0 -0.4,0 -0.4,0 -0.4,0 -0.5,0 -0.4,0 -0.4,0 -0.4,0 -0.5,0 -0.4,0 -0.4,0 -0.5,0 -0.4,0 -0.4,0 -0.4,0 -0.5,0 -0.4,0 -0.4,0 -0.4,0 -0.5,0 -0.4,0 -0.4,0 -0.5,0 -0.4,0 -0.4,0 -0.4,0 -0.5,0 -0.4,0 -0.4,0 -0.5,0 -0.4,0 -0.4,0 -0.4,0 -0.5,0 -0.4,0 -0.4,0 -0.4,0 -0.5,0 -0.4,0 -0.4,0 -0.5,0 -0.4,0 -0.4,0 -0.4,0 -0.5,0 -0.4,0 -0.4,0 -0.4,0 -0.5,0 -0.4,0 -0.4,0 -0.5,0 -0.4,0 -0.4,0 -0.4,0 -0.5,0 -0.4,0 -0.4,0 -0.4,0 -0.5,0 -0.4,0 -0.4,0 -0.5,0 -0.4,0 -0.4,0 -0.4,0 -0.5,0 -0.4,0 -0.4,0 -0.4,0 -0.5,0 -0.4,0 -0.4,0 -0.5,0 -0.4,0 -0.4,0 -0.4,0 -0.5,0 -0.4,0 -0.4,0 -0.4,0 -0.5,0 -0.4,0 -0.4,0 -0.5,0 -0.4,0 -0.4,0 -0.4,0 -0.5,0 -0.4,0 -0.4,0 -0.4,0 -0.5,0 -0.4,0 -0.4,0 -0.5,0 -0.4,0 -0.4,0 -0.4,0 -0.5,0 -0.4,0 -0.4,0 -0.4,0 -0.5,0 -0.4,0 -0.4,0 -0.5,0 -0.4,0 -0.4,0 -0.4,0 -0.5,0 -0.4,0 -0.4,0 -0.4,0 -0.5,0 -0.4,0 -0.4,0 -0.5,0 -0.4,0 -0.4,0 -0.4,0 -0.5,0 -0.4,0 -0.4,0 -0.4,0 -0.5,0 -0.4,0 -0.4,0 -0.5,0 -0.4,0 -0.4,0 -0.4,0 -0.5,0 -0.4,0 -0.4,0 -0.4,0 -0.5,0 -0.4,0 -0.4,0 -0.5,0 -0.4,0 -0.4,0 -0.4,0 -0.5,0 -0.4,0 -0.4,0 -0.4,0 -0.5,0 -0.4,0 -0.4,0 -0.5,0 -0.4,0 -0.4,0 -0.4,0 -0.5,0 -0.4,0 -0.4,0 -0.5,0 -0.4,0 -0.4,0 -0.4,0 -0.5,0 -0.4,0 -0.4,0 -0.4,0 -0.5,0 -0.4,0 -0.4,0 -0.5,0 -0.4,0 -0.4,0 -0.4,0 -0.5,0 -0.4,0 -0.4,0 -0.4,0 -0.5,0 -0.4,0 -0.4,0 -0.5,0 -0.4,0 -0.4,0 -0.4,0 -0.5,0 -0.4,0 -0.4,0 -0.4,0 -0.5,0 -0.4,0 -0.4,0 -0.5,0 -0.4,0 -0.4,0 -0.4,0 -0.5,0 -0.4,0 -0.4,0 -0.4,0 -0.5,0 -0.4,0 -0.4,0 -0.5,0 -0.4,0 -0.4,0 -0.4,0 -0.5,0 -0.4,0 -0.4,0 -0.4,0 -0.5,0 -0.4,0 0.01,0" />
    </g>
  </g>
  <g
     id="gnuplot_plot_2a"
     transform="translate(-25.011816,-34.2)">
    <title
       id="title327">gnuplot_plot_2a</title>
    <g
       id="g329"
       style="color:#ff0000;fill:none;stroke:currentColor;stroke-width:1;stroke-linecap:butt;stroke-linejoin:miter">
      <path
         style="stroke:#000000"
         inkscape:connector-curvature="0"
         id="path331"
         d="m 54.1,239.1 0.4,0 0.5,-0.1 0.4,0 0.4,0 0.4,-0.1 0.5,0 0.4,-0.1 0.4,0 0.4,0 0.5,-0.1 0.4,0 0.4,-0.1 0.5,0 0.4,0 0.4,-0.1 0.4,0 0.5,-0.1 0.4,0 0.4,-0.1 0.4,0 0.5,-0.1 0.4,0 0.4,-0.1 0.5,0 0.4,-0.1 0.4,-0.1 0.4,0 0.5,-0.1 0.4,0 0.4,-0.1 0.4,-0.1 0.5,-0.1 0.4,0 0.4,-0.1 0.5,-0.1 0.4,-0.1 0.4,-0.1 0.4,0 0.5,-0.1 0.4,-0.1 0.4,-0.1 0.4,-0.1 0.5,-0.1 0.4,-0.1 0.4,-0.2 0.5,-0.1 0.4,-0.1 0.4,-0.1 0.4,-0.1 0.5,-0.2 0.4,-0.1 0.4,-0.2 0.4,-0.1 0.5,-0.2 0.4,-0.1 0.4,-0.2 0.5,-0.1 0.4,-0.2 0.4,-0.2 0.4,-0.2 0.5,-0.2 0.4,-0.2 0.4,-0.2 0.5,-0.2 0.4,-0.2 0.4,-0.2 0.4,-0.2 0.5,-0.3 0.4,-0.2 0.4,-0.3 0.4,-0.2 0.5,-0.3 0.4,-0.3 0.4,-0.3 0.5,-0.3 0.4,-0.3 0.4,-0.3 0.4,-0.3 0.5,-0.3 0.4,-0.3 0.4,-0.4 0.4,-0.3 0.5,-0.4 0.4,-0.4 0.4,-0.4 0.5,-0.4 0.4,-0.4 0.4,-0.4 0.4,-0.4 0.5,-0.5 0.4,-0.4 0.4,-0.5 0.4,-0.4 0.5,-0.5 0.4,-0.5 0.4,-0.5 0.5,-0.6 0.4,-0.5 0.4,-0.6 0.4,-0.5 0.5,-0.6 0.4,-0.6 0.4,-0.6 0.4,-0.6 0.5,-0.6 0.4,-0.7 0.4,-0.6 0.5,-0.7 0.4,-0.7 0.4,-0.7 0.4,-0.7 0.5,-0.7 0.4,-0.8 0.4,-0.8 0.4,-0.7 0.5,-0.8 0.4,-0.8 0.4,-0.9 0.5,-0.8 0.4,-0.9 0.4,-0.8 0.4,-0.9 0.5,-0.9 0.4,-1 0.4,-0.9 0.4,-0.9 0.5,-1 0.4,-1 0.4,-1 0.5,-1 0.4,-1.1 0.4,-1 0.4,-1.1 0.5,-1.1 0.4,-1.1 0.4,-1.1 0.4,-1.1 0.5,-1.2 0.4,-1.2 0.4,-1.1 0.5,-1.3 0.4,-1.2 0.4,-1.2 0.4,-1.3 0.5,-1.2 0.4,-1.3 0.4,-1.3 0.4,-1.3 0.5,-1.3 0.4,-1.4 0.4,-1.3 0.5,-1.4 0.4,-1.4 0.4,-1.4 0.4,-1.4 0.5,-1.4 0.4,-1.4 0.4,-1.5 0.4,-1.5 0.5,-1.4 0.4,-1.5 0.4,-1.5 0.5,-1.5 0.4,-1.5 0.4,-1.6 0.4,-1.5 0.5,-1.6 0.4,-1.5 0.4,-1.6 0.4,-1.6 0.5,-1.5 0.4,-1.6 0.4,-1.6 0.5,-1.6 0.4,-1.6 0.4,-1.6 0.4,-1.7 0.5,-1.6 0.4,-1.6 0.4,-1.6 0.4,-1.6 0.5,-1.7 0.4,-1.6 0.4,-1.6 0.5,-1.7 0.4,-1.6 0.4,-1.6 0.4,-1.7 0.5,-1.6 0.4,-1.6 0.4,-1.6 0.5,-1.6 0.4,-1.6 0.4,-1.6 0.4,-1.6 0.5,-1.6 0.4,-1.6 0.4,-1.5 0.4,-1.6 0.5,-1.5 0.4,-1.6 0.4,-1.5 0.5,-1.5 0.4,-1.5 0.4,-1.5 0.4,-1.5 0.5,-1.4 0.4,-1.5 0.4,-1.4 0.4,-1.4 0.5,-1.4 0.4,-1.3 0.4,-1.4 0.5,-1.3 0.4,-1.3 0.4,-1.3 0.4,-1.3 0.5,-1.2 0.4,-1.2 0.4,-1.2 0.4,-1.2 0.5,-1.1 0.4,-1.2 0.4,-1.1 0.5,-1 0.4,-1.1 0.4,-1 0.4,-0.9 0.5,-1 0.4,-0.9 0.4,-0.9 0.4,-0.9 0.5,-0.8 0.4,-0.8 0.4,-0.7 0.5,-0.8 0.4,-0.7 0.4,-0.6 0.4,-0.7 0.5,-0.6 0.4,-0.5 0.4,-0.6 0.4,-0.5 0.5,-0.4 0.4,-0.4 0.4,-0.4 0.5,-0.4 0.4,-0.3 0.4,-0.3 0.4,-0.2 0.5,-0.2 0.4,-0.2 0.4,-0.1 0.4,-0.1 0.5,0 0.4,-0.1 0.4,0.1 0.5,0 0.4,0.1 0.4,0.1 0.4,0.2 0.5,0.2 0.4,0.2 0.4,0.3 0.4,0.3 0.5,0.4 0.4,0.4 0.4,0.4 0.5,0.4 0.4,0.5 0.4,0.6 0.4,0.5 0.5,0.6 0.4,0.7 0.4,0.6 0.4,0.7 0.5,0.8 0.4,0.7 0.4,0.8 0.5,0.8 0.4,0.9 0.4,0.9 0.4,0.9 0.5,1 0.4,0.9 0.4,1 0.4,1.1 0.5,1 0.4,1.1 0.4,1.2 0.5,1.1 0.4,1.2 0.4,1.2 0.4,1.2 0.5,1.2 0.4,1.3 0.4,1.3 0.4,1.3 0.5,1.3 0.4,1.4 0.4,1.3 0.5,1.4 0.4,1.4 0.4,1.4 0.4,1.5 0.5,1.4 0.4,1.5 0.4,1.5 0.4,1.5 0.5,1.5 0.4,1.5 0.4,1.6 0.5,1.5 0.4,1.6 0.4,1.5 0.4,1.6 0.5,1.6 0.4,1.6 0.4,1.6 0.5,1.6 0.4,1.6 0.4,1.6 0.4,1.6 0.5,1.6 0.4,1.7 0.4,1.6 0.4,1.6 0.5,1.7 0.4,1.6 0.4,1.6 0.5,1.7 0.4,1.6 0.4,1.6 0.4,1.6 0.5,1.6 0.4,1.7 0.4,1.6 0.4,1.6 0.5,1.6 0.4,1.6 0.4,1.6 0.5,1.5 0.4,1.6 0.4,1.6 0.4,1.5 0.5,1.6 0.4,1.5 0.4,1.6 0.4,1.5 0.5,1.5 0.4,1.5 0.4,1.5 0.5,1.4 0.4,1.5 0.4,1.5 0.4,1.4 0.5,1.4 0.4,1.4 0.4,1.4 0.4,1.4 0.5,1.4 0.4,1.3 0.4,1.4 0.5,1.3 0.4,1.3 0.4,1.3 0.4,1.3 0.5,1.2 0.4,1.3 0.4,1.2 0.4,1.2 0.5,1.3 0.4,1.1 0.4,1.2 0.5,1.2 0.4,1.1 0.4,1.1 0.4,1.1 0.5,1.1 0.4,1.1 0.4,1 0.4,1.1 0.5,1 0.4,1 0.4,1 0.5,1 0.4,0.9 0.4,0.9 0.4,1 0.5,0.9 0.4,0.9 0.4,0.8 0.4,0.9 0.5,0.8 0.4,0.9 0.4,0.8 0.5,0.8 0.4,0.7 0.4,0.8 0.4,0.8 0.5,0.7 0.4,0.7 0.4,0.7 0.4,0.7 0.5,0.7 0.4,0.6 0.4,0.7 0.5,0.6 0.4,0.6 0.4,0.6 0.4,0.6 0.5,0.6 0.4,0.5 0.4,0.6 0.4,0.5 0.5,0.6 0.4,0.5 0.4,0.5 0.5,0.5 0.4,0.4 0.4,0.5 0.4,0.4 0.5,0.5 0.4,0.4 0.4,0.4 0.4,0.4 0.5,0.4 0.4,0.4 0.4,0.4 0.5,0.4 0.4,0.3 0.4,0.4 0.4,0.3 0.5,0.3 0.4,0.3 0.4,0.3 0.4,0.3 0.5,0.3 0.4,0.3 0.4,0.3 0.5,0.3 0.4,0.2 0.4,0.3 0.4,0.2 0.5,0.3 0.4,0.2 0.4,0.2 0.5,0.2 0.4,0.2 0.4,0.2 0.4,0.2 0.5,0.2 0.4,0.2 0.4,0.2 0.4,0.2 0.5,0.1 0.4,0.2 0.4,0.1 0.5,0.2 0.4,0.1 0.4,0.2 0.4,0.1 0.5,0.2 0.4,0.1 0.4,0.1 0.4,0.1 0.5,0.1 0.4,0.2 0.4,0.1 0.5,0.1 0.4,0.1 0.4,0.1 0.4,0.1 0.5,0.1 0.4,0 0.4,0.1 0.4,0.1 0.5,0.1 0.4,0.1 0.4,0 0.5,0.1 0.4,0.1 0.4,0.1 0.4,0 0.5,0.1 0.4,0 0.4,0.1 0.4,0.1 0.5,0 0.4,0.1 0.4,0 0.5,0.1 0.4,0 0.4,0.1 0.4,0 0.5,0.1 0.4,0 0.4,0.1 0.4,0 0.5,0 0.4,0.1 0.4,0 0.5,0.1 0.4,0 0.4,0 0.4,0.1 0.5,0 0.4,0.1 0.4,0 0.4,0 0.5,0.1 0.4,0 -0.4,0 -0.5,0 -0.4,0 -0.4,0 -0.4,0 -0.5,0 -0.4,0 -0.4,0 -0.4,0 -0.5,0 -0.4,0 -0.4,0 -0.5,0 -0.4,0 -0.4,0 -0.4,0 -0.5,0 -0.4,0 -0.4,0 -0.4,0 -0.5,0 -0.4,0 -0.4,0 -0.5,0 -0.4,0 -0.4,0 -0.4,0 -0.5,0 -0.4,0 -0.4,0 -0.4,0 -0.5,0 -0.4,0 -0.4,0 -0.5,0 -0.4,0 -0.4,0 -0.4,0 -0.5,0 -0.4,0 -0.4,0 -0.4,0 -0.5,0 -0.4,0 -0.4,0 -0.5,0 -0.4,0 -0.4,0 -0.4,0 -0.5,0 -0.4,0 -0.4,0 -0.4,0 -0.5,0 -0.4,0 -0.4,0 -0.5,0 -0.4,0 -0.4,0 -0.4,0 -0.5,0 -0.4,0 -0.4,0 -0.4,0 -0.5,0 -0.4,0 -0.4,0 -0.5,0 -0.4,0 -0.4,0 -0.4,0 -0.5,0 -0.4,0 -0.4,0 -0.5,0 -0.4,0 -0.4,0 -0.4,0 -0.5,0 -0.4,0 -0.4,0 -0.4,0 -0.5,0 -0.4,0 -0.4,0 -0.5,0 -0.4,0 -0.4,0 -0.4,0 -0.5,0 -0.4,0 -0.4,0 -0.4,0 -0.5,0 -0.4,0 -0.4,0 -0.5,0 -0.4,0 -0.4,0 -0.4,0 -0.5,0 -0.4,0 -0.4,0 -0.4,0 -0.5,0 -0.4,0 -0.4,0 -0.5,0 -0.4,0 -0.4,0 -0.4,0 -0.5,0 -0.4,0 -0.4,0 -0.4,0 -0.5,0 -0.4,0 -0.4,0 -0.5,0 -0.4,0 -0.4,0 -0.4,0 -0.5,0 -0.4,0 -0.4,0 -0.4,0 -0.5,0 -0.4,0 -0.4,0 -0.5,0 -0.4,0 -0.4,0 -0.4,0 -0.5,0 -0.4,0 -0.4,0 -0.4,0 -0.5,0 -0.4,0 -0.4,0 -0.5,0 -0.4,0 -0.4,0 -0.4,0 -0.5,0 -0.4,0 -0.4,0 -0.4,0 -0.5,0 -0.4,0 -0.4,0 -0.5,0 -0.4,0 -0.4,0 -0.4,0 -0.5,0 -0.4,0 -0.4,0 -0.4,0 -0.5,0 -0.4,0 -0.4,0 -0.5,0 -0.4,0 -0.4,0 -0.4,0 -0.5,0 -0.4,0 -0.4,0 -0.4,0 -0.5,0 -0.4,0 -0.4,0 -0.5,0 -0.4,0 -0.4,0 -0.4,0 -0.5,0 -0.4,0 -0.4,0 -0.4,0 -0.5,0 -0.4,0 -0.4,0 -0.5,0 -0.4,0 -0.4,0 -0.4,0 -0.5,0 -0.4,0 -0.4,0 -0.4,0 -0.5,0 -0.4,0 -0.4,0 -0.5,0 -0.4,0 -0.4,0 -0.4,0 -0.5,0 -0.4,0 -0.4,0 -0.5,0 -0.4,0 -0.4,0 -0.4,0 -0.5,0 -0.4,0 -0.4,0 -0.4,0 -0.5,0 -0.4,0 -0.4,0 -0.5,0 -0.4,0 -0.4,0 -0.4,0 -0.5,0 -0.4,0 -0.4,0 -0.4,0 -0.5,0 -0.4,0 -0.4,0 -0.5,0 -0.4,0 -0.4,0 -0.4,0 -0.5,0 -0.4,0 -0.4,0 -0.4,0 -0.5,0 -0.4,0 -0.4,0 -0.5,0 -0.4,0 -0.4,0 -0.4,0 -0.5,0 -0.4,0 -0.4,0 -0.4,0 -0.5,0 -0.4,0 -0.4,0 -0.5,0 -0.4,0 -0.4,0 -0.4,0 -0.5,0 -0.4,0 -0.4,0 -0.4,0 -0.5,0 -0.4,0 -0.4,0 -0.5,0 -0.4,0 -0.4,0 -0.4,0 -0.5,0 -0.4,0 -0.4,0 -0.4,0 -0.5,0 -0.4,0 -0.4,0 -0.5,0 -0.4,0 -0.4,0 -0.4,0 -0.5,0 -0.4,0 -0.4,0 -0.4,0 -0.5,0 -0.4,0 -0.4,0 -0.5,0 -0.4,0 -0.4,0 -0.4,0 -0.5,0 -0.4,0 -0.4,0 -0.4,0 -0.5,0 -0.4,0 -0.4,0 -0.5,0 -0.4,0 -0.4,0 -0.4,0 -0.5,0 -0.4,0 -0.4,0 -0.4,0 -0.5,0 -0.4,0 -0.4,0 -0.5,0 -0.4,0 -0.4,0 -0.4,0 -0.5,0 -0.4,0 -0.4,0 -0.4,0 -0.5,0 -0.4,0 -0.4,0 -0.5,0 -0.4,0 -0.4,0 -0.4,0 -0.5,0 -0.4,0 -0.4,0 -0.4,0 -0.5,0 -0.4,0 -0.4,0 -0.5,0 -0.4,0 -0.4,0 -0.4,0 -0.5,0 -0.4,0 -0.4,0 -0.5,0 -0.4,0 -0.4,0 -0.4,0 -0.5,0 -0.4,0 -0.4,0 -0.4,0 -0.5,0 -0.4,0 -0.4,0 -0.5,0 -0.4,0 -0.4,0 -0.4,0 -0.5,0 -0.4,0 -0.4,0 -0.4,0 -0.5,0 -0.4,0 -0.4,0 -0.5,0 -0.4,0 -0.4,0 -0.4,0 -0.5,0 -0.4,0 -0.4,0 -0.4,0 -0.5,0 -0.4,0 -0.4,0 -0.5,0 -0.4,0 -0.4,0 -0.4,0 -0.5,0 -0.4,0 -0.4,0 -0.4,0 -0.5,0 -0.4,0 -0.4,0 -0.5,0 -0.4,0 -0.4,0 -0.4,0 -0.5,0 -0.4,0 -0.4,0 -0.4,0 -0.5,0 -0.4,0 -0.4,0 -0.5,0 -0.4,0 -0.4,0 -0.4,0 -0.5,0 -0.4,0 -0.4,0 -0.4,0 -0.5,0 -0.4,0 -0.4,0 -0.5,0 -0.4,0 -0.4,0 -0.4,0 -0.5,0 -0.4,0 -0.4,0 -0.4,0 -0.5,0 -0.4,0 -0.4,0 -0.5,0 -0.4,0 -0.4,0 -0.4,0 -0.5,0 -0.4,0 -0.4,0 -0.4,0 -0.5,0 -0.4,0 -0.4,0 -0.5,0 -0.4,0 -0.4,0 -0.4,0 -0.5,0 -0.4,0 -0.4,0 -0.4,0 -0.5,0 -0.4,0 -0.4,0 -0.5,0 -0.4,0 -0.4,0 -0.4,0 -0.5,0 -0.4,0 -0.4,0 -0.4,0 -0.5,0 -0.4,0 -0.4,0 -0.5,0 -0.4,0 -0.4,0 -0.4,0 -0.5,0 -0.4,0 -0.4,0 -0.4,0 -0.5,0 -0.4,0 -0.4,0 -0.5,0 -0.4,0 -0.4,0 -0.4,0 -0.5,0 -0.4,0 -0.4,0 -0.5,0 -0.4,0 -0.4,0 -0.4,0 -0.5,0 -0.4,0 -0.4,0 -0.4,0 -0.5,0 -0.4,0 -0.4,0 -0.5,0 -0.4,0 -0.4,0 -0.4,0 -0.5,0 -0.4,0 -0.4,0 -0.4,0 -0.5,0 -0.4,0 -0.4,0 -0.5,0 -0.4,0 -0.4,0 -0.4,0 -0.5,0 -0.4,0 -0.4,0 -0.4,0 -0.5,0 -0.4,0 -0.4,0 -0.5,0 -0.4,0 -0.4,0 -0.4,0 -0.5,0 -0.4,0 -0.4,0 -0.4,0 -0.5,0 -0.4,0 -0.4,0 -0.5,0 -0.4,0 -0.4,0 -0.4,0 -0.5,0 -0.4,0 -0.4,0 -0.4,0 -0.5,0 -0.4,0 0.01,0" />
    </g>
  </g>
  <g
     id="g333"
     style="color:#000000;fill:none;stroke:currentColor;stroke-width:1;stroke-linecap:butt;stroke-linejoin:miter"
     transform="translate(-25.011816,-34.2)" />
  <g
     id="g711"
     style="color:#ffffff;fill:none;stroke:#000000;stroke-width:1;stroke-linecap:butt;stroke-linejoin:miter"
     transform="translate(-25.011816,-34.2)" />
  <g
     id="g713"
     style="color:#000000;fill:none;stroke:currentColor;stroke-width:1;stroke-linecap:butt;stroke-linejoin:miter"
     transform="translate(-25.011816,-34.2)" />
</svg>
